<svg xmlns="http://www.w3.org/2000/svg" width="22" height="20" viewBox="0 0 22 20">
  <g id="checkmark" transform="translate(0 -0.008)">
    <path id="Trazado_104" data-name="Trazado 104" d="M10.079,20.008A10.052,10.052,0,0,1,0,10.008,10.094,10.094,0,0,1,15.517,1.589a.68.68,0,0,1,.207.943.691.691,0,0,1-.95.205,8.716,8.716,0,0,0-13.4,7.271,8.705,8.705,0,0,0,17.41,0c0-.285-.014-.566-.04-.844a.687.687,0,0,1,1.368-.132q.047.481.047.975a10.052,10.052,0,0,1-10.079,10Zm0,0" fill="#ff3948"/>
    <path id="Trazado_105" data-name="Trazado 105" d="M154.171,32.851a.685.685,0,0,1-.488-.2l-4.141-4.141a.69.69,0,0,1,.976-.976l3.654,3.654,9.634-9.634a.69.69,0,0,1,.977.976L154.66,32.649a.691.691,0,0,1-.489.2Zm0,0" transform="translate(-142.985 -20.419)" fill="#ff3948"/>
  </g>
</svg>
