<svg xmlns="http://www.w3.org/2000/svg" xmlns:xlink="http://www.w3.org/1999/xlink" width="1084.053" height="960" viewBox="0 0 1084.053 960"><defs><style>.a{fill:none;}.b{fill:url(#a);}.c{opacity:0.15;mix-blend-mode:multiply;isolation:isolate;}.d{clip-path:url(#b);}.e{clip-path:url(#c);}.f{fill:#35396f;}.g{clip-path:url(#d);}.h{clip-path:url(#e);}.i{fill:#fe5b68;}.j{fill:#ff3948;}.k{fill:#efefef;}.l{fill:#acb8c1;}.m{fill:#f2f6f9;}.n{fill:url(#f);}.o{fill:#dae8f2;}.p{fill:url(#g);}.q{fill:url(#h);}.r{fill:#fff;}.s{fill:#f89199;}.t{fill:url(#u);}.u{filter:url(#s);}.v{filter:url(#q);}.w{filter:url(#o);}.x{filter:url(#m);}.y{filter:url(#k);}</style><linearGradient id="a" x1="-0.157" y1="0.071" x2="2.511" y2="1.258" gradientUnits="objectBoundingBox"><stop offset="0" stop-color="#231f20"/><stop offset="1" stop-color="#6d6e71"/></linearGradient><clipPath id="b"><rect class="a" width="30.453" height="71.422"/></clipPath><clipPath id="c"><rect class="a" width="30.447" height="71.417"/></clipPath><clipPath id="d"><rect class="a" width="156.645" height="106.239"/></clipPath><clipPath id="e"><rect class="a" width="156.637" height="106.245"/></clipPath><linearGradient id="f" x1="-0.15" y1="0.335" x2="2.583" y2="1.486" gradientUnits="objectBoundingBox"><stop offset="0" stop-color="#feaf8b"/><stop offset="1" stop-color="#fdc7a9"/></linearGradient><linearGradient id="g" x1="1" y1="0.5" x2="0" y2="0.5" xlink:href="#f"/><linearGradient id="h" x1="-0.211" y1="0.323" x2="2.011" y2="0.99" xlink:href="#a"/><filter id="k" x="430.333" y="93.5" width="213.308" height="162.229" filterUnits="userSpaceOnUse"><feOffset dx="4" dy="4" input="SourceAlpha"/><feGaussianBlur stdDeviation="1.5" result="l"/><feFlood flood-opacity="0.149"/><feComposite operator="in" in2="l"/><feComposite in="SourceGraphic"/></filter><filter id="m" x="763.155" y="596.563" width="320.898" height="159.509" filterUnits="userSpaceOnUse"><feOffset dx="4" dy="4" input="SourceAlpha"/><feGaussianBlur stdDeviation="1.5" result="n"/><feFlood flood-opacity="0.149"/><feComposite operator="in" in2="n"/><feComposite in="SourceGraphic"/></filter><filter id="o" x="854.059" y="234.037" width="139.563" height="139.56" filterUnits="userSpaceOnUse"><feOffset dx="4" dy="4" input="SourceAlpha"/><feGaussianBlur stdDeviation="1.5" result="p"/><feFlood flood-opacity="0.149"/><feComposite operator="in" in2="p"/><feComposite in="SourceGraphic"/></filter><filter id="q" x="388.023" y="645.672" width="146.818" height="61.586" filterUnits="userSpaceOnUse"><feOffset dx="4" dy="4" input="SourceAlpha"/><feGaussianBlur stdDeviation="1.5" result="r"/><feFlood flood-opacity="0.149"/><feComposite operator="in" in2="r"/><feComposite in="SourceGraphic"/></filter><filter id="s" x="344.5" y="326.518" width="177.644" height="226.603" filterUnits="userSpaceOnUse"><feOffset dx="4" dy="4" input="SourceAlpha"/><feGaussianBlur stdDeviation="1.5" result="t"/><feFlood flood-opacity="0.149"/><feComposite operator="in" in2="t"/><feComposite in="SourceGraphic"/></filter><linearGradient id="u" x1="0.949" y1="-0.078" x2="0.623" y2="0.809" gradientUnits="objectBoundingBox"><stop offset="0" stop-color="#fff3f4"/><stop offset="1" stop-color="#ffa5ac" stop-opacity="0"/></linearGradient></defs><g transform="translate(345 94)"><g transform="translate(228.552 152.398)"><path class="b" d="M1084.591,489.178c34.807,0,68.577,2.223,78.156,10.208,1.865,1.555,3.574,4.319,5.144,8.07v.018c11.245,27.014,14.871,105.067,16.051,152.748v.014a512.063,512.063,0,0,1-70.229-15.16q-8.325-2.394-16.667-5.137c-1.555-16.206-4.187-29.938-8.648-29.938-2.084,0-3.773,2.737-5.132,7.146v.015a104.285,104.285,0,0,0-3.175,16.978,577.869,577.869,0,0,1-83.868-38.358q-8.755-4.864-17.479-10.079c5.239-71.757,15.647-92.914,15.647-92.914h.02c1-.078,30.281-2.359,64.354-3.247,8.307-.216,16.9-.364,25.443-.364Z" transform="translate(-972.405 -90.547)"/><g class="c" transform="translate(110.852 483.111)"><g transform="translate(0)"><g class="d"><g transform="translate(0.006 -0.001)"><g class="e" transform="translate(0)"><path class="f" d="M1025.479,588.882c1.362-4.4,3.049-7.143,5.134-7.143,4.459,0,7.087,13.726,8.648,29.935q8.352,2.752,16.666,5.135c-10.682-35.74-11.029-73.35-18.06-71.338-12.694,3.625-12.387,43.41-12.387,43.41" transform="translate(-1025.478 -545.392)"/></g></g></g></g></g><g class="c" transform="translate(6.329 398.992)"><g transform="translate(0)"><g class="g"><g transform="translate(0.007 0.001)"><g class="h" transform="translate(0)"><path class="f" d="M1028.538,595.661c-1.594-36.23,8.18-68.3,37.773-67.381,56.358,1.758,98.867-8.486,101.279-9.087a.235.235,0,0,0,.108-.018l-6.146-2.394-30.157-11.714-40.312-15.647c-34.074.89-63.359,3.172-64.36,3.246h-.015s-10.406,21.159-15.65,92.917q8.732,5.218,17.48,10.078" transform="translate(-1011.059 -489.418)"/></g></g></g></g></g><path class="i" d="M1008.012,389.95s4.641,30.575,6.454,50.523-3.629,34.457-23.572,36.265-32.643-18.131-38.083-34.452l9.242-50.774Z" transform="translate(-764.285 -140.434)"/><path class="i" d="M1050.078,608.733c31.319,1.326,53.312-.272,68.365-3.824,25.914-6.113,31.192-18.009,27.744-30.628-5.44-19.951-14.508-61.652-3.625-112.432l34-70.72s-10.5-39.748-43.066-54.4c-5.912-2.667-11.1-5.025-15.63-7.128-23.357-10.827-29.7-14.634-29.7-14.634h-34.451s-5.333.98-13.278,3.028c-17.625,4.552-48.2,14.344-62.341,30.194,0,0,.706,24.768.886,57.161.29,52.927-.816,126.242-8.687,145.356-12.692,30.828-5.438,54.4,79.789,58.028" transform="translate(-944.969 -178.133)"/><path class="j" d="M1077.528,586.37c31.319,1.326,53.312-.272,68.365-3.824-35.216,3.5-76.037-21.994-64.734-59.643,16.317-54.4,81.6-85.229,81.6-85.229s-1.815-56.214-74.351-32.64-48.922-45.588-48.922-45.588l-33.061,23.541c.29,52.927-.816,126.242-8.688,145.356-12.692,30.828-5.438,54.4,79.789,58.028" transform="translate(-972.419 -155.771)"/><path class="k" d="M1003.874,318c14.506,34.346,35.74,53.078,60.42,49.558,20.475-2.917,18.532-28.268,17.011-37.951-23.359-10.827-29.7-14.635-29.7-14.635h-34.457s-5.33.978-13.272,3.028" transform="translate(-908.41 -178.133)"/><g transform="translate(129.275 212.997)"><path class="l" d="M966.46,443.621h82.327a8.377,8.377,0,0,0,8.142-6.471l14.234-61.24a8.351,8.351,0,0,0-8.141-10.261h-80.9a8.369,8.369,0,0,0-8.107,6.291l-15.666,61.238a8.375,8.375,0,0,0,8.106,10.444" transform="translate(-958.092 -365.649)"/><path class="m" d="M966.46,443.621h76.886a8.374,8.374,0,0,0,8.142-6.471l14.236-61.24a8.35,8.35,0,0,0-8.142-10.261H982.13a8.367,8.367,0,0,0-8.107,6.291l-15.669,61.238a8.377,8.377,0,0,0,8.107,10.444" transform="translate(-952.653 -365.649)"/><path class="j" d="M988.361,394.143c-1.468,5.311.47,10.48,4.329,11.549s8.183-2.368,9.654-7.678-.47-10.479-4.331-11.546-8.183,2.367-9.652,7.675" transform="translate(-934.289 -355.28)"/></g><path class="n" d="M1025.776,371.71c3.629,1.812-1.815,19.948,0,21.76s32.64-1.812,38.081-3.628,16.32-3.629,3.627,10.884-18.138,27.2-32.641,27.2-21.761-1.814-21.761-1.814L1002.2,431.55l-7.255-27.2,9.068-5.44s17.047-27.281,21.392-27.281a.835.835,0,0,1,.368.081" transform="translate(-886.211 -149.646)"/><path class="i" d="M1099.086,392.342s-19.945,50.772-9.066,50.772,56.215-23.571,56.215-23.571l14.506,30.826s-76.161,58.029-99.734,50.775-29.017-30.828-18.137-90.668,25.389-77.975,41.709-76.163,29.014,18.134,14.506,58.028" transform="translate(-1037.497 -168.467)"/><path class="o" d="M1037.5,402.09s11.684,46.927,17.124,48.741,19.948-29.015,19.948-29.015l-14.506-30.826s-10.674.446-22.566,11.1" transform="translate(-951.324 -139.912)"/><path class="p" d="M977.148,379.443c1.814,3.625-1.812,34.439-12.689,39.891h-.066c-1.945-.191-10.778-9.2-7.192-21.754,3.626-12.7,3.626-14.512,9.068-16.326,3.752-1.252,6.641-3.365,8.672-3.365a2.36,2.36,0,0,1,2.208,1.554" transform="translate(-732.408 -146.498)"/><path class="q" d="M1078.048,266.452s10.879,3.626,5.439,21.763-23.572,29.012-23.572,29.012l-78.121,29.14s-7.107-29.14-8.919-56.343,3.625-41.706,14.509-36.265c0,0-7.255-25.391,25.386-29.017a143.507,143.507,0,0,1,15.578-.831c31.854,0,69.815,10.05,49.7,42.54" transform="translate(-864.136 -223.912)"/><path class="p" d="M1065.35,327.716c-12.69,16.317,7.254,34.451-10.882,38.079-23.718,4.747-43.517-34.452-43.517-34.452,14.509-21.764,18.132-45.335,18.132-45.335Z" transform="translate(-902.213 -192.693)"/><path class="p" d="M1034.765,267.333c21.759,14.506,34.46,5.441,38.994-.909,0,0-14.506,85.231-43.523,85.231s-39.894-34.458-39.894-47.148c0,0-11.788-2.721-9.975-19.038s12.691-12.694,14.5,0c0,0,9.069-1.812,9.069-18.135v-16.32s9.066,1.817,30.825,16.32" transform="translate(-864.376 -210.287)"/></g><g transform="translate(85.833)"><g class="y" transform="matrix(1, 0, 0, 1, -430.83, -94)"><path class="r" d="M1093.553,275.729h174.256a15.069,15.069,0,0,0,15.025-15.026V137.526a15.069,15.069,0,0,0-15.025-15.026H1093.553a15.072,15.072,0,0,0-15.028,15.026V260.7a15.072,15.072,0,0,0,15.028,15.026" transform="translate(-647.69 -28.5)"/></g><rect class="i" width="27.964" height="52.983" transform="translate(154.086 72.518)"/><rect class="i" width="27.962" height="75.689" transform="translate(111.478 49.811)"/><rect class="i" width="27.962" height="65.093" transform="translate(22.256 60.407)"/><rect class="i" width="27.963" height="101.425" transform="translate(67.532 24.076)"/></g><g transform="translate(418.655 503.063)"><g class="x" transform="matrix(1, 0, 0, 1, -763.65, -597.06)"><path class="r" d="M740.59,531.242h281.852a15.069,15.069,0,0,0,15.023-15.026V395.756a15.068,15.068,0,0,0-15.023-15.023H740.59a15.067,15.067,0,0,0-15.023,15.023v120.46a15.068,15.068,0,0,0,15.023,15.026" transform="translate(38.09 216.33)"/></g><path class="j" d="M758.775,472.486a12.693,12.693,0,1,0-12.694-12.694,12.707,12.707,0,0,0,12.694,12.694m0-19.948a7.254,7.254,0,1,1-7.251,7.254,7.258,7.258,0,0,1,7.251-7.254" transform="translate(-490.398 -347.366)"/><path class="j" d="M916.851,429.044a12.692,12.692,0,1,0-12.694-12.691,12.707,12.707,0,0,0,12.694,12.691m0-19.945a7.254,7.254,0,1,1-7.251,7.254,7.26,7.26,0,0,1,7.251-7.254" transform="translate(-886.026 -369.207)"/><path class="i" d="M973.765,485.257a11.82,11.82,0,0,0,7.356-2.173l-3.44-4.217c-.1.071-9.461,6.654-28.784-15.959-9.825-11.5-17.629-16.661-24.65-16.152-8.27.568-13.448,8.644-18.451,16.452-3.432,5.354-6.887,7.932-10.271,7.691-4.657-.349-12.544-6-23.7-30.91-10.857-24.256-16.96-35.794-25.975-36.8-6.583-.745-13.441,4.528-23.625,18.147-10.461,13.988-17.3,20.239-22.13,20.239h-.117c-4.08-.086-8.085-4.792-13.622-12.891-13.4-19.6-25.831-15.726-26.354-15.554l1.724,5.16c.329-.092,9.234-2.483,20.138,13.463,5.647,8.261,10.9,15.11,18,15.261,7.1.2,14.544-6.133,26.718-22.418,8.512-11.386,14.451-16.473,18.67-16,6.412.715,13,14.381,21.611,33.612,9.974,22.279,19.217,33.434,28.256,34.11,5.5.433,10.664-3.008,15.258-10.18,5.1-7.95,9.1-13.606,14.246-13.959,5.067-.317,11.643,4.316,20.139,14.258,13.16,15.394,22.923,18.815,29,18.815" transform="translate(-720.971 -369.476)"/></g><g transform="translate(509.559 140.537)"><g class="w" transform="matrix(1, 0, 0, 1, -854.56, -234.54)"><path class="r" d="M860.659,346.579H961.173A15.065,15.065,0,0,0,976.2,331.557V231.044a15.065,15.065,0,0,0-15.023-15.025H860.659a15.067,15.067,0,0,0-15.026,15.025V331.557a15.066,15.066,0,0,0,15.026,15.022" transform="translate(8.93 18.52)"/></g><path class="i" d="M864.94,271.593a36.285,36.285,0,1,0,.636-6.746,35.583,35.583,0,0,0-.636,6.746" transform="translate(-835.925 -206.313)"/><path class="j" d="M889.073,264.847l35.633,6.747V235.325a36.256,36.256,0,0,0-35.633,29.522" transform="translate(-859.423 -206.313)"/></g><g transform="translate(43.523 552.172)"><g class="v" transform="matrix(1, 0, 0, 1, -388.52, -646.17)"><path class="r" d="M1160.63,542.524h118.406a9.733,9.733,0,0,0,9.708-9.7V499.644a9.735,9.735,0,0,0-9.708-9.706H1160.63a9.733,9.733,0,0,0-9.7,9.706v33.178a9.732,9.732,0,0,0,9.7,9.7" transform="translate(-762.4 156.23)"/></g><g transform="translate(36.268 19.042)"><path class="j" d="M1175.059,509.86a7.254,7.254,0,1,0,7.252-7.251,7.254,7.254,0,0,0-7.252,7.251" transform="translate(-1124.284 -502.609)"/><path class="j" d="M1191.954,509.86a7.253,7.253,0,1,0,7.253-7.251,7.254,7.254,0,0,0-7.253,7.251" transform="translate(-1166.566 -502.609)"/><path class="j" d="M1208.846,509.86a7.255,7.255,0,1,0,7.255-7.251,7.255,7.255,0,0,0-7.255,7.251" transform="translate(-1208.846 -502.609)"/></g></g><g transform="translate(0 233.018)"><g class="u" transform="matrix(1, 0, 0, 1, -345, -327.02)"><path class="r" d="M1174.4,495.163h138.594a15.066,15.066,0,0,0,15.025-15.025V292.588a15.069,15.069,0,0,0-15.025-15.028H1174.4a15.074,15.074,0,0,0-15.026,15.028V480.138a15.07,15.07,0,0,0,15.026,15.025" transform="translate(-814.37 49.46)"/></g><path class="s" d="M1173.852,305.932a9.1,9.1,0,0,0,9.066,9.069h106.991a9.05,9.05,0,0,0,6.4-15.468,8.995,8.995,0,0,0-6.4-2.666H1182.918a9.093,9.093,0,0,0-9.066,9.065" transform="translate(-1152.089 -267.853)"/><path class="j" d="M1173.853,305.932a9.1,9.1,0,0,0,9.069,9.069h85.227a9.052,9.052,0,0,0,6.4-15.468,9,9,0,0,0-6.4-2.666h-85.227a9.094,9.094,0,0,0-9.069,9.065" transform="translate(-1130.33 -267.853)"/><path class="s" d="M1173.852,332.48a9.1,9.1,0,0,0,9.066,9.068h106.991a9.1,9.1,0,0,0,9.068-9.068,9.11,9.11,0,0,0-9.068-9.066H1182.918a9.093,9.093,0,0,0-9.066,9.066" transform="translate(-1152.089 -254.506)"/><path class="j" d="M1173.854,332.48a9.1,9.1,0,0,0,9.065,9.068h43.521a9.093,9.093,0,0,0,9.066-9.068,9.1,9.1,0,0,0-9.066-9.066h-43.521a9.092,9.092,0,0,0-9.065,9.066" transform="translate(-1088.622 -254.506)"/><path class="s" d="M1173.852,357.821a9.107,9.107,0,0,0,9.066,9.071h106.991a9.051,9.051,0,0,0,6.4-15.469,9,9,0,0,0-6.4-2.669H1182.918a9.1,9.1,0,0,0-9.066,9.068" transform="translate(-1152.089 -241.767)"/><path class="j" d="M1173.854,357.821a9.11,9.11,0,0,0,9.069,9.071h63.466a9.069,9.069,0,0,0,0-18.138h-63.466a9.1,9.1,0,0,0-9.069,9.068" transform="translate(-1108.571 -241.767)"/><path class="s" d="M1173.852,384.369a9.107,9.107,0,0,0,9.066,9.069h106.991a9.1,9.1,0,0,0,9.068-9.069,9.113,9.113,0,0,0-9.068-9.068H1182.918a9.1,9.1,0,0,0-9.066,9.068" transform="translate(-1152.089 -228.42)"/><path class="j" d="M1173.854,384.369a9.1,9.1,0,0,0,9.065,9.069h43.521a9.1,9.1,0,0,0,9.066-9.069,9.107,9.107,0,0,0-9.066-9.068h-43.521a9.094,9.094,0,0,0-9.065,9.068" transform="translate(-1088.622 -228.42)"/></g><circle class="t" cx="480" cy="480" r="480" transform="translate(-345 -94)"/></g></svg>