<svg xmlns="http://www.w3.org/2000/svg" width="256.742" height="265.574" viewBox="0 0 256.742 265.574"><defs><style>.a{fill:#ffe8ea;}</style></defs><g transform="translate(-220.435 -3537.767)"><g transform="translate(220.435 3537.767)"><path class="a" d="M522.87,809.293a115.243,115.243,0,0,0,25.35-21.964,101.588,101.588,0,0,0,9.679-13.164,98.862,98.862,0,0,0,7.279-13.948,107.853,107.853,0,0,1-12.168,21.342,139.944,139.944,0,0,0,9.436-14.784,119.849,119.849,0,0,0,7.525-16.12,24.374,24.374,0,0,1-.758,3.46c-.375,1.286-.917,2.632-1.379,3.945-.928,2.629-1.987,4.957-1.87,6.125A101.14,101.14,0,0,1,537.6,799.723a103.654,103.654,0,0,1-39.8,19.571,68.558,68.558,0,0,1,13.613-5.547C515.516,812.542,519.319,811.413,522.87,809.293Z" transform="translate(-334.259 -587.35)"/><path class="a" d="M564.291,722.716c-.046,3.086-.067,6.1-.351,9.052C564.135,728.61,564.068,725.5,564.291,722.716Z" transform="translate(-322.135 -592.472)"/><path class="a" d="M376.729,748.114a92.583,92.583,0,0,1-2.471-11.034C375.066,740.716,375.782,744.44,376.729,748.114Z" transform="translate(-356.903 -589.839)"/><path class="a" d="M496.335,817.259a54.159,54.159,0,0,1-5.689,1.3,111.924,111.924,0,0,1-44.135-4.508,101.775,101.775,0,0,0,24.713,4.028A184.033,184.033,0,0,0,496.335,817.259Z" transform="translate(-343.66 -575.731)"/><path class="a" d="M502.235,818.685a146.268,146.268,0,0,0,40.236-20.718A131.274,131.274,0,0,1,502.235,818.685Z" transform="translate(-333.445 -578.678)"/><path class="a" d="M392.1,650.122c-.206-.1-.1-.443.142-.891a7.142,7.142,0,0,0,.75-1.174,129.464,129.464,0,0,1,16.2-13.2c-1.291,1.153-2.3,2.454-3.66,3.55-1.541,1.131-2.75,2.077-3.872,2.861s-2.1,1.476-3.04,2.255-1.9,1.577-2.976,2.6A47.514,47.514,0,0,0,392.1,650.122Z" transform="translate(-353.654 -608.577)"/><path class="a" d="M377.33,749.837l.219.352c.411,1.233.79,2.453,1.274,3.638.027.151.053.292.084.459A41.021,41.021,0,0,1,377.33,749.837Z" transform="translate(-356.34 -587.5)"/><path class="a" d="M387.3,654.666a1.67,1.67,0,0,0-1.427-.006c1.257-1.537,2.652-2.952,3.995-4.4,1.328-1.463,2.761-2.827,4.179-4.2-.265.4-.515.789-.691,1.116-.813,1.034-1.978,2.241-3.086,3.552A23.318,23.318,0,0,0,387.3,654.666Z" transform="translate(-354.774 -606.523)"/><path class="a" d="M359.805,725.585a28.513,28.513,0,0,0,1.2,6.005,111.4,111.4,0,0,0,1.332,21.133c.484,1.145,1.059,3.669,2.058,5.919.071,1.469.227,3.047.443,4.706a131.18,131.18,0,0,1-4.266-52.769c-.228,2.432-.348,4.9-.543,7.393C359.965,720.469,359.85,723,359.805,725.585Z" transform="translate(-359.592 -594.697)"/><path class="a" d="M614.936,739.785c-.217-5.26-.771-10.7-1.505-16.212a130.665,130.665,0,0,0-3.484-16.512c-3.159-10.847-8.024-21.238-14.508-29.237a126.012,126.012,0,0,1,8.106,17.185,113.652,113.652,0,0,1,5.17,17.925c2.122,11.387,1.64,20.425-.019,22.192-1.742,1.78-1.9-5.957-3.747-16.152a125.03,125.03,0,0,0-4.01-16.216,90.005,90.005,0,0,0-6.119-14.379c.737,2.266.737,2.266,1.473,4.524-.758-2.225-1.41-4.564-2.861-6.151.445,1.095.937,2.474,1.469,3.943s1.131,3.011,1.563,4.553c.447,1.535.917,2.978,1.15,4.262a14.105,14.105,0,0,1,.34,3.037l-1.138-1.745c-.284-.432-.567-.865-.78-1.19s-.373-.53-.373-.53c1.058,5.858,2.995,13.891,3.8,22.029.84,8.129.553,16.269-.768,21.781A86.74,86.74,0,0,0,593.8,698.67a99.73,99.73,0,0,0-11.754-22.032,105.635,105.635,0,0,0-17.688-19.125,106.342,106.342,0,0,0-47.783-22.826,109.19,109.19,0,0,0-26.418-1.983,111.385,111.385,0,0,0-25.521,4.031A98.3,98.3,0,0,0,439.474,648.4a100.85,100.85,0,0,0-10.764,8.015A97.4,97.4,0,0,0,405.182,686.3a95.672,95.672,0,0,0-8.168,22.267c-.7,2.813-2.267,7.465-3.379,12.78a128.266,128.266,0,0,0-2.474,16.164,101.341,101.341,0,0,0,2.986,26.08,87.951,87.951,0,0,0,9.944,23.717,110.723,110.723,0,0,0,36.017,39.165,94.621,94.621,0,0,0,52.569,15.76,35.726,35.726,0,0,1,5.834.361,10.45,10.45,0,0,1,3.966.975c.671.444.51.981-1.058,1.568a20.191,20.191,0,0,1-3.478.891,56.386,56.386,0,0,1-6.035.579,91.511,91.511,0,0,1-24.766-1.918,94.654,94.654,0,0,1-23.6-8.722,7.018,7.018,0,0,1,2.423.626c.505.2,1.051.438,1.622.7l1.822.744a32.675,32.675,0,0,0,7.089,2.393,119.278,119.278,0,0,1-15.288-8.036,136.857,136.857,0,0,1-13.936-9.8A106.4,106.4,0,0,0,447.45,835.33,101.656,101.656,0,0,1,421.9,817.693a112.447,112.447,0,0,1-20.216-25.539c-1.892-3.546-2.8-7.292-3.77-11.328a62.841,62.841,0,0,0-4.789-13.435,102.271,102.271,0,0,0,6.356,20.479,101.012,101.012,0,0,0,10.831,19,97.775,97.775,0,0,0,33.233,29.1,1.037,1.037,0,0,0-.174,0,106,106,0,0,0,36.143,11.465c-.993-.1-2-.148-2.985-.283s-1.97-.289-2.937-.432a39.282,39.282,0,0,1-5.479-1.213l3.375.962c1.135.284,2.279.519,3.42.782,2.273.572,4.6.846,6.9,1.256a99.646,99.646,0,0,0,14,.908,102.069,102.069,0,0,0,13.982-1.009c2.3-.408,4.622-.7,6.892-1.254,1.138-.258,2.286-.483,3.42-.764l3.381-.925a95.558,95.558,0,0,1-40.263,5.751,102.835,102.835,0,0,1-40.6-11.5,109.932,109.932,0,0,1-33.06-26.6,116.174,116.174,0,0,1-20.627-36.079c1.521,7.613,5.41,15.9,10.109,23.279,4.724,7.4,10.124,13.916,14.035,19.569A105.817,105.817,0,0,1,391.9,788.251a106.167,106.167,0,0,1-8.816-37.389,47.84,47.84,0,0,0,1.023,5.6,188.325,188.325,0,0,1,.314-24.445,97.527,97.527,0,0,1,5-23.826c.511-1.331.934-2.677,1.53-3.981-.6,1.279-1.028,2.642-1.53,3.981a108.371,108.371,0,0,0-6.335,42.673,76.7,76.7,0,0,1,.372-21.883,51.765,51.765,0,0,0-1.6,7.943c-.311,3.022-.6,6.319-.615,9.627a112.389,112.389,0,0,0,3.577,25.641,139.181,139.181,0,0,1-5.014-38.239c-2.254,18.218.834,37.531,7.889,54.689a115.9,115.9,0,0,1-8.727-29.283,118.327,118.327,0,0,1,5.083-51.074c-.2.627-.343,1.283-.5,1.922.32-1.28.762-2.523,1.161-3.775a118.224,118.224,0,0,1,8.378-18.6c2.881-5.422,5.9-10.656,9.153-15.778l1.877-2.425c-.916,1.758-1.255,2.662,1.237-.088A185.628,185.628,0,0,1,423.246,652.6a96.147,96.147,0,0,1,10.654-7.449A74.547,74.547,0,0,1,446,639.418c4.436-1.674,10.3-4.155,16.877-6.243a9.68,9.68,0,0,0,3.584-1.086c1.437-.38,2.884-.839,4.358-1.161,1.808-.329,3.614-.71,5.425-1.015,1.816-.265,3.62-.584,5.406-.912-1.783.215-3.589.51-5.406.787-1.813.318-3.619.757-5.425,1.141-1.361.246-2.683.634-4.005.958a10.607,10.607,0,0,1,3.738-1.518,114.321,114.321,0,0,0-36.286,13.53,112.582,112.582,0,0,0-30.147,25.725c.822-1.388,2.1-3.294,2.584-4.14-1.535,2.171-3.071,4.315-4.461,6.565a105.063,105.063,0,0,0-13.16,22.153c.884-2.413,1.773-4.637,2.365-6.709a110.421,110.421,0,0,0-12.222,34.848,107.434,107.434,0,0,0-1.628,18.5,112.818,112.818,0,0,0,1.374,18.52,114.34,114.34,0,0,0,28.186,62.451,141.557,141.557,0,0,1-19.459-33.168A117.788,117.788,0,0,0,418.837,830a118.009,118.009,0,0,0,21.483,14.673,124.565,124.565,0,0,0,24.142,9.833c-1.6-.105-3.331-.311-5.119-.517s-3.572-.588-5.331-.855c-1.763-.251-3.4-.665-4.928-.88-.758-.121-1.48-.216-2.148-.289-.658-.095-1.266-.159-1.812-.182-.021.208.615.685,1.495,1.234.895.51,2.033,1.093,2.971,1.586,1.877.984,2.963,1.614-.305.576a90.166,90.166,0,0,1-8.569-2.969c-2.66-1.183-5.262-2.27-7.618-3.577a123.9,123.9,0,0,1-12.677-7.675c-7.431-5.067-12.928-9.578-18.179-11.866-.563-.153.066,1.231,1.255,3.323,1.286,1.991,3.053,4.791,4.923,7.21.912,1.244,1.788,2.44,2.549,3.477a30.106,30.106,0,0,1,1.816,2.564c.788,1.31.576,1.7-1.5.347a121.9,121.9,0,0,1-27.386-27.68c-1.313-1.906-2.475-3.965-3.763-5.989-1.234-2.058-2.4-4.207-3.623-6.367a11.314,11.314,0,0,0-1.761-2.434,125.636,125.636,0,0,1-9.326-22.86,112.026,112.026,0,0,1-3.817-18.127q-.25-2.549-.495-5.075c-.179-1.68-.2-3.37-.3-5.05a17.206,17.206,0,0,1,.724-4.469,54.594,54.594,0,0,1-.8-6.321,138.234,138.234,0,0,1,3.433-26.416,142.464,142.464,0,0,1,4.953-13.736c-.3,0-.911.625-.879-.34a129.96,129.96,0,0,1,14.433-29.353,51.73,51.73,0,0,1,4.116-4.85c.7-.736,1.371-1.452,2.065-2.113q1.069-.974,2.113-1.851c2.573-5.378,8.878-12.964,17.012-19.832,8.057-6.984,17.994-12.947,26.349-17.328l-.065-.071a126.5,126.5,0,0,1,27-9.886c1.618-.127,3.164-.189,4.615-.183,2.238-.927,4.726-1.33,5.861-1.764a106.06,106.06,0,0,1,20.66-.329,24.205,24.205,0,0,1,5.921-.935c2.519.1,4.988.391,7.425.55,2.434.244,4.826.562,7.2.83a128.722,128.722,0,0,1,16.468,3.995,123.991,123.991,0,0,1,48.251,28.452,1.734,1.734,0,0,1-.08,1.415,21.288,21.288,0,0,1,3.711,3.061c1.222,1.145,2.364,2.314,3.332,3.157-.434-.259-.76-.368-.859-.163,1.56,1.4,2.777,2.555,3.746,3.623.945,1.092,1.691,2.059,2.391,3.023,1.434,1.9,2.523,3.939,4.688,6.981.992,1.361,2.233,2.415,3.3,3.713.457.683.852,1.412,1.276,2.131,3.118,8.057,7.528,15.106,10.924,23.9a122.245,122.245,0,0,1,5.819,27.276,38.163,38.163,0,0,1-.04,8.474c-.142,1.123-.277,2.18-.415,3.269C615.29,737.42,615.086,738.538,614.936,739.785Z" transform="translate(-359.381 -612.647)"/><path class="a" d="M408.308,635.584a128.015,128.015,0,0,1,23.932-12.326C423.408,627.148,416.39,631.981,408.308,635.584Z" transform="translate(-350.662 -610.702)"/><path class="a" d="M413.676,820.689a42.631,42.631,0,0,0,4.265,4.08,56.131,56.131,0,0,0,5.157,3.971,135.186,135.186,0,0,1-49.469-50.623l.066-.067c4.878,8.326,11.418,18.219,18.934,26.13C400.03,812.178,408.076,818.276,413.676,820.689Z" transform="translate(-357.019 -582.329)"/><path class="a" d="M392.2,647.186c.176-.327.426-.714.691-1.116l.059-.058A7.137,7.137,0,0,1,392.2,647.186Z" transform="translate(-353.615 -606.531)"/><path class="a" d="M447.18,818.709l1.93.573c-2.479-.6-4.97-1.2-7.4-1.994-2.468-.7-4.862-1.619-7.276-2.5C438.351,816.028,442.65,817.524,447.18,818.709Z" transform="translate(-345.874 -575.595)"/><path class="a" d="M491.306,825.911c1.294-.224,2.571-.531,3.846-.856s2.555-.609,3.822-.951c2.509-.778,5.054-1.434,7.509-2.367a117.531,117.531,0,0,0,14.472-6.131,145.92,145.92,0,0,0,33.095-21.535A117.779,117.779,0,0,1,491.306,825.911Z" transform="translate(-335.449 -579.392)"/><path class="a" d="M441.686,831.444c1.158.406,2.312.85,3.487,1.239q1.771.559,3.553,1.123c2.371.8,4.8,1.392,7.243,2.028-2.47-.485-4.938-.916-7.358-1.557l-3.638-.895c-1.2-.319-2.394-.7-3.589-1.044C442.365,832.327,441.7,831.747,441.686,831.444Z" transform="translate(-344.599 -572.542)"/><path class="a" d="M413.205,803.076c.843.627,1.719,1.216,2.573,1.82-2.369-1.315-4.625-2.82-6.933-4.281C409.742,801.077,411.755,802.3,413.205,803.076Z" transform="translate(-350.564 -578.193)"/><path class="a" d="M487.677,836.689c-1.844.216-3.692.284-5.532.381s-3.674.2-5.5.177a48.75,48.75,0,0,0,6.443-1.085A17.853,17.853,0,0,0,487.677,836.689Z" transform="translate(-338.137 -571.677)"/><path class="a" d="M532,822.18q3.245-1.981,6.34-3.984c2.009-1.407,4.041-2.717,5.939-4.123a128.556,128.556,0,0,1-14.7,10.025A11.886,11.886,0,0,1,532,822.18Z" transform="translate(-328.432 -575.726)"/></g><circle class="a" cx="102.246" cy="102.246" r="102.246" transform="matrix(0.998, -0.056, 0.056, 0.998, 241.705, 3571.667)"/></g></svg>