<svg xmlns="http://www.w3.org/2000/svg" xmlns:xlink="http://www.w3.org/1999/xlink" width="924.449" height="794.022" viewBox="0 0 924.449 794.022"><defs><style>.a,.r{fill:none;}.b{fill:#fff3f4;}.c{fill:#ffc299;}.d{fill:url(#a);}.e{clip-path:url(#b);}.f{fill:#333;}.g{fill:url(#c);}.h{clip-path:url(#d);}.i{fill:#1e1e1e;}.j{fill:#fe5b68;}.k{fill:#ff3948;}.l{fill:url(#e);}.m,.s{fill:#fff;}.n{fill:url(#f);}.ab,.o{opacity:0.1;}.ab,.an,.o,.q,.s,.v{isolation:isolate;}.o{fill:url(#g);}.p{fill:url(#h);}.ap,.q{fill:#fef8f6;}.aq,.q{opacity:0.7;}.r{stroke:#fc4d5b;stroke-miterlimit:10;stroke-width:0.5px;stroke-dasharray:3;}.ae,.s{opacity:0.5;}.t{clip-path:url(#i);}.u{fill:url(#j);}.v{opacity:0.15;}.w{clip-path:url(#k);}.x{fill:url(#l);}.y{fill:url(#m);}.z{clip-path:url(#n);}.aa{fill:url(#o);}.ac{clip-path:url(#p);}.ad{fill:#fceeea;}.af{fill:#edd7d1;}.ag{clip-path:url(#q);}.ah{opacity:0.6;}.ai{fill:url(#r);}.aj{fill:url(#s);}.ak{fill:url(#t);}.al{fill:url(#u);}.am{fill:url(#v);}.an{opacity:0.3;fill:url(#w);}.ao{fill:#fc4d5b;}.ar{clip-path:url(#x);}.as{fill:#e2e2e2;}.at{clip-path:url(#y);}.au{clip-path:url(#z);}</style><linearGradient id="a" x1="-8.371" y1="-2.182" x2="-8.36" y2="-2.182" gradientUnits="objectBoundingBox"><stop offset="0" stop-color="#6d6e71"/><stop offset="1" stop-color="#414042"/></linearGradient><clipPath id="b"><path class="a" d="M21.333,142.253l85.277-24.536s27.527-4.955,14.236-28.435c0,0-49.447-67.282-56.153-86.06,0,0-3.5-8.227-10.01,1.611,0,0-13.2,10.771,34.045,89.243,0,0-4.825,4.422-24.877,2.936,0,0-23.728.095-38.768,4.742L0,126.4l3.4,20.251Z"/></clipPath><linearGradient id="c" x1="-6.715" y1="-1.232" x2="-6.706" y2="-1.232" xlink:href="#a"/><clipPath id="d"><path class="a" d="M35.48,204.3s26.963-30.015,58.142-69.837c0,0,16.02-17.943,24-40.583,0,0,23.209-61.184,32.469-91.813,0,0-13.407-6.834-21.69,4.331,0,0-23.015,36.175-43.305,90.016a95.763,95.763,0,0,1-17.431,20.467l-41.685,38.43S6.167,174.818,0,189.4C0,189.388,18.5,212.544,35.48,204.3Z" transform="translate(0 0)"/></clipPath><linearGradient id="e" x1="-69.353" y1="-34.007" x2="-69.273" y2="-34.007" gradientUnits="objectBoundingBox"><stop offset="0" stop-color="#ef9881"/><stop offset="1" stop-color="#ff5e36"/></linearGradient><linearGradient id="f" x1="-39.468" y1="-42.65" x2="-39.421" y2="-42.65" xlink:href="#a"/><linearGradient id="g" x1="-6.164" y1="-6.455" x2="-6.157" y2="-6.455" xlink:href="#a"/><linearGradient id="h" x1="-6.274" y1="-6.38" x2="-6.266" y2="-6.38" xlink:href="#a"/><clipPath id="i"><path class="a" d="M10.945,0,34.757,31.936l-15.182,47.9L0,59.449Z"/></clipPath><linearGradient id="j" x1="-22.129" y1="-8.863" x2="-22.089" y2="-8.863" xlink:href="#a"/><clipPath id="k"><path class="a" d="M0,0,21.946,33.243l50.205,1.988L59.622,9.9Z"/></clipPath><linearGradient id="l" x1="-12.034" y1="-19.328" x2="-12.015" y2="-19.328" xlink:href="#a"/><linearGradient id="m" x1="-64.515" y1="-17.154" x2="-64.408" y2="-17.154" xlink:href="#a"/><clipPath id="n"><path class="a" d="M81.519,39C46.1-5.263,5.972.216,5.972.216S-12.976,36.128,16.629,84.473c26.147,42.691,72.984,70.6,72.984,70.6l16.8-11.8,16.558-11.624S112.795,78.083,81.519,39Z"/></clipPath><linearGradient id="o" x1="-14.815" y1="-6.101" x2="-14.785" y2="-6.101" xlink:href="#a"/><clipPath id="p"><path class="a" d="M36.091,8.445A19.847,19.847,0,1,1,8.443,3.607l0,0A19.845,19.845,0,0,1,36.091,8.445Z"/></clipPath><clipPath id="q"><path class="a" d="M17.983,4.208A9.889,9.889,0,1,1,4.207,1.8,9.888,9.888,0,0,1,17.983,4.208Z"/></clipPath><linearGradient id="r" x1="-73.956" y1="-206.923" x2="-73.646" y2="-206.923" xlink:href="#a"/><linearGradient id="s" x1="-74.407" y1="-205.748" x2="-74.097" y2="-205.748" xlink:href="#a"/><linearGradient id="t" x1="-74.852" y1="-204.578" x2="-74.542" y2="-204.578" xlink:href="#a"/><linearGradient id="u" x1="-75.31" y1="-203.394" x2="-75" y2="-203.394" xlink:href="#a"/><linearGradient id="v" x1="-75.758" y1="-202.242" x2="-75.448" y2="-202.242" xlink:href="#a"/><linearGradient id="w" x1="-6.733" y1="-2.678" x2="-6.725" y2="-2.678" gradientUnits="objectBoundingBox"><stop offset="0" stop-color="#fba4ab"/><stop offset="1" stop-color="#fc4d5b"/></linearGradient><clipPath id="x"><path class="a" d="M12.293,57.6C7.976,59.247.941,60.311.066,50.245a21.388,21.388,0,0,1,.408-6.153C2.255,35.415,9.054,5.319,18.723.189A1.57,1.57,0,0,1,20.85.823c.016.029.031.059.044.09,1.7,3.694,4.991,16.46-4.416,52.021A6.872,6.872,0,0,1,12.293,57.6Z"/></clipPath><clipPath id="y"><path class="a" d="M15.38,38.02s-25.457,8.594-10.867-14.3c0,0,34.676-41.348,25.6-14.862C30.111,8.856,19.582,36.449,15.38,38.02Z"/></clipPath><clipPath id="z"><path class="a" d="M62.966,132.326s15.546-5.182,23.118-30.691c0,0,11.558-30.888,58.988-50.319,0,0,3.587-13.943-10.759-27.05,0,0-61.378,16.786-86.884,65.014V41.451L90.076,24.266S93.664,13.154,80.111,0c0,0-35.074,7.573-52.611,21.123,0,0-16.74,10.328-27.5,93.249l29.493,22.549Z"/></clipPath></defs><g transform="translate(-845.551 -100)"><path class="b" d="M1482.9,1034.132c-19.036-35.817-44.866-66.782-67.849-100.524-14.559-21.374-21-48.466-27.534-73.418-13.706-52.372-29.859-107.167-67.978-148.026-36.693-39.331-97.747-57.32-150.391-51.974-87.789,8.918-152.321,82.882-205.491,146.187-59.994,71.431-120.607,128.159-210.376,158.4-61.3,20.652-126.771,38.849-155,103.382a130.044,130.044,0,0,0,7.967,120.005c24.116,39.4,66.67,61.072,109,75.609,70.527,24.219,147.464,25.327,220.878,16.9,51.924-5.963,103.661-16.933,155.883-14.814,95.446,3.875,188.609,43.731,285.021,31.191,55.663-7.24,103.027-43.224,123.676-95.585C1522.375,1146.516,1509.83,1084.8,1482.9,1034.132Z" transform="translate(258.264 -559.268)"/><g transform="matrix(-0.921, 0.391, -0.391, -0.921, 1837.989, 741.935)"><g transform="translate(0 0)"><g transform="translate(152.074 65.52)"><path class="c" d="M27.022,16.157a41.4,41.4,0,0,1,12.011-5.6,24.592,24.592,0,0,0,5.039-1.375A4.918,4.918,0,0,0,47.1,5.246a4.526,4.526,0,0,0-2.34-3.84A10.676,10.676,0,0,0,40.257.155,61.7,61.7,0,0,0,25.242.927c-4.553.66-9.208,1.5-13.158,3.861A37.611,37.611,0,0,0,7.033,8.639,17.959,17.959,0,0,0,2.182,14.1,17.118,17.118,0,0,0,.871,19.412q-.492,3.8-.828,7.611a.774.774,0,0,0,.479.983.783.783,0,0,0,.4.028l4.524.408a8.155,8.155,0,0,0,3.2-.136c1.607-.507,2.687-1.881,4.057-2.78,1.3-.855,2.657-1.481,3.934-2.4Q21.7,19.466,27.022,16.157Z" transform="translate(151.927)"/><path class="c" d="M17.256,14.6a22.738,22.738,0,0,1,2.208-7.826C20.554,4.826,22.22,3.009,22.216.781a.9.9,0,0,0-.149-.575c-.23-.272-.665-.225-1.015-.136A17.661,17.661,0,0,0,10.63,7.677a33.869,33.869,0,0,0-2.4,4.876Q5.894,18.043,3.658,23.575A74.219,74.219,0,0,0,.784,31.591C-.305,35.523-.6,40.219,2.171,43.215A14.3,14.3,0,0,0,6.58,46.074a3.749,3.749,0,0,0,2.8.535,3.372,3.372,0,0,0,1.448-1.246,23.711,23.711,0,0,0,4.83-13.542A126.831,126.831,0,0,1,17.256,14.6Z" transform="translate(97.778 58.07)"/><path class="d" d="M21.333,142.253l85.277-24.536s27.527-4.955,14.236-28.435c0,0-49.447-67.282-56.153-86.06,0,0-3.5-8.227-10.01,1.611,0,0-13.2,10.771,34.045,89.243,0,0-4.825,4.422-24.877,2.936,0,0-23.728.095-38.768,4.742L0,126.4l3.4,20.251Z" transform="translate(51.814 88.226)"/><g transform="translate(51.814 88.226)"><g class="e"><g transform="translate(-32.085 30.394)"><path class="f" d="M63.713,42.631a12.447,12.447,0,0,1-4.953-1.508c-2.453-1.517-3.385-4.567-4.019-7.375S53.461,27.892,51.291,26c-4.15-3.61-11.02-.817-15.844-3.46a12.279,12.279,0,0,1-4.929-6.128A77.5,77.5,0,0,0,27.4,9.039,22.345,22.345,0,0,0,16.535,0L0,21.194,11.129,38.9l34.854,8.5,15.368,1.644Z" transform="translate(0 66.231)"/><path class="f" d="M5.211,32.5a2.144,2.144,0,0,0,1.082.409,2.125,2.125,0,0,0,1.232-.545,21.672,21.672,0,0,0,3.653-3.781A69.49,69.49,0,0,0,21.855,9.806c.71-1.881,1.331-4.017.5-5.847A8.175,8.175,0,0,0,19.467.983,4.546,4.546,0,0,0,17.606.031c-1.758-.284-3.113,1.453-4.038,2.976Q7.33,13.276,1.092,23.546A6.614,6.614,0,0,0,.025,26.011C-.331,28.665,3.26,31.3,5.211,32.5Z" transform="translate(96.762 0)"/></g></g></g><path class="g" d="M35.48,204.3s26.963-30.015,58.142-69.837c0,0,16.02-17.943,24-40.583,0,0,23.209-61.184,32.469-91.813,0,0-13.407-6.834-21.69,4.331,0,0-23.015,36.175-43.305,90.016a95.763,95.763,0,0,1-17.431,20.467l-41.685,38.43S6.167,174.818,0,189.4C0,189.388,18.5,212.544,35.48,204.3Z" transform="translate(20.617 21.643)"/><g transform="translate(20.617 21.643)"><g class="h"><g transform="translate(-0.808 163.224)"><path class="f" d="M63.721,42.625a12.474,12.474,0,0,1-4.953-1.507c-2.451-1.519-3.384-4.568-4.019-7.376S53.468,27.885,51.3,26c-4.15-3.611-11.02-.818-15.846-3.461a12.284,12.284,0,0,1-4.929-6.128A77.768,77.768,0,0,0,27.4,9.041,22.349,22.349,0,0,0,16.535,0L0,21.2,11.13,38.9l34.855,8.5L61.352,49.04Z"/></g></g></g><path class="i" d="M46.073,21.007S60.99,36.791,50.722,50.785A8.374,8.374,0,0,1,45.782,54a6.818,6.818,0,0,1-5.007-.8,4.89,4.89,0,0,0-5.068-.091,34.315,34.315,0,0,1-8.87,3.878,19.3,19.3,0,0,1-16.58-3.073A25.107,25.107,0,0,1,0,34.592,56.439,56.439,0,0,1,1.607,26.32,29.493,29.493,0,0,0,2.875,15.561,23.111,23.111,0,0,0,.918,7.875S-1.525,2.675,1.7.55c0,0,4.482-2.343,8.183,2.639Z" transform="translate(27.018 350.312)"/><path class="j" d="M64.264,137.351S24.77,150.414,5.82,127.581c0,0-6.86-9.817-5.685-29.032C.135,98.549,6.587-.1,21.229,0c0,0,5.6-.281,11.952,11.535,0,0,1.864,7.23,16.112,5.533,0,0,10.129-1.553,15.945,4.344a12.819,12.819,0,0,0,12.469,3.971s13.15-2.4,3.1,9.414c0,0-7.966,3.25-8.273,22.559l9.242,9.486a182.37,182.37,0,0,1-2.271,48.4S77.355,134.48,64.264,137.351Z" transform="translate(0.472 202.674)"/><path class="c" d="M44.4,51.858S46.6,28.9,39.744,17.44a7.632,7.632,0,0,0-5.626-3.651,14.83,14.83,0,0,0-10.664,2.707,21.115,21.115,0,0,0,1.907-13.57s-1.77-5.555-6.905-1.354L7.94,10.188S5.75,13.851,6.735,21.45c0,0,1.346,7.038,2,9.357,0,0-10.224-1.09-8.545,7.028,0,0,1.382,8.091,9.933,2.411,0,0,4.841-3.229,3.386,3.36,0,0-2.988,13.919,6.322,8.171C19.831,51.778,30.631,44.689,44.4,51.858Z" transform="translate(28.534 331.834)"/><path class="k" d="M0,73.074S8,12.8,31.581.794c0,0,17.516-5.871,43.493,14.31L53.284,18.4S42.6,18.97,37.3,24.311s-17.4,27.1-17.4,27.1Z" transform="translate(0.612 228.149)"/><path class="k" d="M11.775,7.988S2.769,14.205,0,53.064C0,53.064-.211,23.85,4.24,0Z" transform="translate(65.207 265.051)"/><path class="l" d="M16.934,13.982S18.432-2.961,0,.455l2.938,12.03Z" transform="translate(89.763 255.052)"/><path class="j" d="M1.794,84.768s4.952,9.074,13.218,3.646c0,0,3.906-3.151,8.274-18.33,0,0,5.425-25.928,17.241-46.642a7.769,7.769,0,0,1,7.145-3.948c9.836.5,33.229,2.8,51.509,13.413,0,0-6.239-20.4-43.964-31.682a26.855,26.855,0,0,0-26.71,6.358A68.889,68.889,0,0,0,13.44,29.535S-5.858,69.659,1.794,84.768Z" transform="translate(0 233.645)"/><path class="i" d="M34.566,26.8S10.029,12.97.343,2.3A1.348,1.348,0,0,1,1.3.058,85.1,85.1,0,0,1,33.649,5.169Z" transform="translate(51.746 254.899)"/><path class="f" d="M67.76,78.391,57.547,27.96a12.015,12.015,0,0,0-5.72-7.992C44.555,15.708,28.653,7.556,2.8.085A2.14,2.14,0,0,0,.064,2.073c-.166,6.916-.25,25.574,3,40.4a14.507,14.507,0,0,0,5.614,8.562c6.851,5.038,22.976,15.364,55.978,29.861a2.24,2.24,0,0,0,3.1-2.5Z" transform="translate(82.587 259.988)"/><path class="m" d="M.577,6C-.434,3.272-.082.632,1.363.1S4.8,1.328,5.813,4.044s.662,5.365-.784,5.9S1.592,8.719.577,6Z" transform="translate(110.171 292.741)"/><path class="m" d="M12.594,16.439A53.9,53.9,0,0,0,0,14.135S.486.662,7.248.02C7.248.02,17.082-1.25,12.594,16.439Z" transform="translate(27.69 293.973)"/></g><g transform="translate(38.052 325.464)"><path class="f" d="M23.435,26.844,46.871,8.064,0,0Z" transform="translate(0 10.741)"/><path class="j" d="M46.871,7.569V18.806L0,10.741V0Z" transform="translate(0)"/></g><g transform="translate(472.81 690.88)"><path class="n" d="M6.8,0,0,19.929,30.767,7.069Z" transform="translate(0 0)"/><path class="j" d="M4.221,19.509,0,12.861,30.767,0l4.041,6.355Z" transform="translate(0.005 7.069)"/></g><g transform="translate(229.985 555.529)"><rect class="o" width="172.156" height="113.565" rx="4.686" transform="translate(0 8.558)"/><rect class="p" width="172.156" height="113.565" rx="4.686" transform="translate(18.559 0)"/><g transform="translate(43.475 17.407)"><rect class="j" width="10.577" height="46.322" transform="translate(36.629 0)"/><rect class="j" width="10.577" height="46.322" transform="translate(9.814 0)"/><g transform="translate(0 15.111)"><path class="f" d="M61.414,0a1.225,1.225,0,0,1,.866,2.1c-.831.817-20.434,19.865-35.014,9.486-.545-.462-11.484-9.532-25.166,4.148A1.229,1.229,0,0,1,.36,14h0c15.348-15.348,28.3-4.453,28.423-4.34C41.6,18.776,60.364.535,60.55.352A1.215,1.215,0,0,1,61.414,0Z"/></g></g><g transform="translate(114.006 45.684)"><ellipse class="q" cx="23.506" cy="23.506" rx="23.506" ry="23.506" transform="translate(46.378 0) rotate(80.576)"/><path class="j" d="M0,9.017A26.255,26.255,0,0,0,24.65,26.269V0Z" transform="translate(2.392 27.038)"/></g></g><path class="r" d="M427.872,58.354C415.315,44.013,244.828-71.784,114.89,69.113c-18.229,19.768-25.156,48.569-22.755,75.35.771,8.607,4.572,19.024,13.174,19.837,9.9.937,15.158-13.838,9.1-21.722s-17.5-8.055-27.365-6.82C-2.416,146.952-4.341,257.425,2.349,277.089" transform="matrix(0.875, 0.485, -0.485, 0.875, 185.03, -86.346)"/><g transform="translate(0 426.367)"><path class="j" d="M20.85.238,1.758,15.384S-5.62,32,9.852,47.271C26.785,64,48.88,68.817,67.171,78.147c-5.6-19.4-4.8-42.433-17.228-62.73C38.586-3.124,20.85.238,20.85.238Z" transform="translate(98.453 143.404)"/><path class="s" d="M19.289,0,9.5,7.762,0,15.3A105.127,105.127,0,0,0,45.183,52.27,103.7,103.7,0,0,0,19.289,0Z" transform="translate(98.577 141.429)"/><g transform="translate(51.303 91.943)"><g transform="translate(0 23.856)"><g class="t"><g transform="translate(-6.273 -6.387)"><path class="u" d="M10.945,0,34.757,31.935l-15.182,47.9L0,59.448Z" transform="translate(6.272 6.388)"/><path class="v" d="M8.693,76.032,27.1,14.707,16.778,0,5.15,23.636,0,69.9Z" transform="translate(0 0)"/></g></g></g><g transform="translate(44.924)"><g class="w"><g transform="translate(-5.855 -5.495)"><path class="x" d="M0,0,21.946,33.242l50.2,1.988L59.621,9.9Z" transform="translate(5.855 5.495)"/><path class="v" d="M74.255,21.13,10.324,17.617,0,2.91,26.181,0,71.444,10.87Z" transform="translate(0 0)"/></g></g></g></g><rect class="y" width="12.918" height="40.751" transform="matrix(0.575, 0.818, -0.818, 0.575, 123.342, 132.056)"/><g transform="translate(0 0)"><g class="z"><g transform="translate(-37.227 -28.799)"><path class="j" d="M81.527,39.1C46.108-5.163,5.9.2,5.9.2S-12.928,36.281,16.676,84.629c26.147,42.69,73.1,70.766,73.1,70.766l16.805-11.8,16.555-11.625S112.8,78.184,81.527,39.1Z" transform="translate(37.374 28.92)"/><rect class="aa" width="52.015" height="91.924" transform="matrix(0.575, 0.818, -0.818, 0.575, 75.233, 0)"/><rect class="ab" width="4.987" height="91.924" transform="matrix(0.575, 0.818, -0.818, 0.575, 102.256, 38.489)"/><path class="ab" d="M5.318,0S-9.146,82.491,103.3,146.961l-10.83,7.6S-26.171,77.3,5.318,0Z" transform="translate(39.285 31.541)"/></g></g></g><ellipse class="ab" cx="25.665" cy="25.665" rx="25.665" ry="25.665" transform="translate(55.263 35.787) rotate(43.319)"/><path class="ab" d="M39.825,9.316A21.9,21.9,0,1,1,9.316,3.98l0,0A21.9,21.9,0,0,1,39.825,9.316Z" transform="translate(34.424 50.166)"/><g transform="translate(36.479 52.219)"><g class="ac"><g transform="translate(0 -4.878)"><path class="ad" d="M36.091,8.445A19.847,19.847,0,1,1,8.443,3.607l0,0A19.845,19.845,0,0,1,36.091,8.445Z" transform="translate(0 4.878)"/><g class="ae" transform="translate(8.603 0)"><rect class="af" width="7.978" height="48.418" transform="matrix(0.985, 0.172, -0.172, 0.985, 15.208, 1.204)"/><rect class="af" width="3.99" height="48.422" transform="translate(8.349 0) rotate(9.929)"/></g></g></g></g><path class="ab" d="M23.254,5.438A12.788,12.788,0,1,1,5.44,2.322h0A12.79,12.79,0,0,1,23.254,5.438Z" transform="translate(71.068 98.489)"/><path class="ab" d="M19.844,4.641a10.913,10.913,0,1,1-15.2-2.659h0A10.914,10.914,0,0,1,19.844,4.641Z" transform="translate(72.943 100.365)"/><g transform="translate(73.967 101.387)"><g class="ag"><g transform="translate(0 -3.686)"><path class="ad" d="M17.983,4.208A9.889,9.889,0,1,1,4.207,1.8,9.888,9.888,0,0,1,17.983,4.208Z" transform="translate(0 3.686)"/><g class="ah" transform="translate(2.996 0)"><rect class="af" width="4.523" height="27.446" transform="translate(8.617 0.681) rotate(9.925)"/><rect class="af" width="2.262" height="27.446" transform="translate(4.731 0) rotate(9.925)"/></g></g></g></g><g transform="translate(93.469 134.502)"><rect class="ai" width="12.918" height="3.508" transform="matrix(0.575, 0.818, -0.818, 0.575, 2.871, 16.513)"/><rect class="aj" width="12.918" height="3.508" transform="matrix(0.575, 0.818, -0.818, 0.575, 8.751, 12.384)"/><rect class="ak" width="12.918" height="3.508" transform="matrix(0.575, 0.818, -0.818, 0.575, 14.632, 8.254)"/><rect class="al" width="12.918" height="3.508" transform="matrix(0.575, 0.818, -0.818, 0.575, 20.515, 4.125)"/><rect class="am" width="12.917" height="3.508" transform="translate(26.39 0) rotate(54.895)"/></g><rect class="ab" width="2.909" height="40.751" transform="translate(123.342 132.055) rotate(54.927)"/><path class="s" d="M0,0S19.366,2.637,33.62,11.77c0,0-3.54,3.155-8.922-.3S17.864,6.307,12.537,5.53C2.649,4.086,0,0,0,0Z" transform="translate(17.77 2.351)"/></g><path class="r" d="M0,451.057c81.875,86.361,279.837,91.124,345.983,78.883,21.364-3.95,42.433-10.266,61.6-20.5,13.364-7.138,26.273-16.815,32.357-30.692s3.056-32.585-9.927-40.4c-7.983-4.8-54.494-15.6-70.665.831-3.76,3.812-1.038,10.909,3.192,14.2a22.035,22.035,0,0,0,15.252,4c122.63-10.151,108.064-223.2,53.468-277.48-24.31-24.168-62.687-32.709-81.628-61.283-19.243-29.018-9.6-71.244,16.488-94.31S430.484-4.365,464.493,3.1" transform="translate(179.085 209.345)"/><g transform="translate(670.631 495.961)"><path class="f" d="M22.815,44.407l6.81-3.849c3.031-1.717.381-12.132-5.92-23.264S9.841-1.475,6.809.241L0,4.091Z" transform="translate(1.253 0)"/><path class="j" d="M1.255.241c3.032-1.717,10.6,5.919,16.9,17.051S27.1,38.841,24.072,40.556s-10.6-5.918-16.9-17.051S-1.777,1.955,1.255.241Z" transform="translate(0 3.85)"/></g><g transform="translate(341.744 321.664)"><path class="f" d="M38.01,5.884,32.3.544C29.756-1.835,20.61,3.813,11.872,13.156S-1.882,32,.661,34.383l5.711,5.339Z" transform="translate(0 0)"/><path class="j" d="M.661,34.381C-1.882,32,3.136,22.5,11.874,13.155S29.753-1.834,32.3.543,29.824,12.425,21.09,21.771,3.206,36.76.661,34.381Z" transform="translate(5.712 5.34)"/></g><path class="an" d="M168.715,108.061,43.7,102.145c-8.589.049-16.479-5.8-19.9-14.766L.676,26.842C-1.515,21.1,1.86,14.788,7.337,14.382L122.751.051c8.911-.66,17.369,5.118,21.069,14.39l31.557,81.778C177.617,101.823,174.12,108.03,168.715,108.061Z" transform="translate(349.274 123.584)"/><path class="ao" d="M168.715,108.06,43.7,102.146c-8.579.049-16.479-5.8-19.9-14.766L.676,26.842C-1.515,21.1,1.862,14.787,7.337,14.383L122.752.051c8.91-.661,17.368,5.117,21.069,14.39l31.555,81.777C177.611,101.823,174.123,108.029,168.715,108.06Z" transform="translate(335.458 133.86)"/><g transform="translate(380.232 221.158)"><g transform="translate(0 0)"><path class="ap" d="M1.254,0H1.3l42,1.648a1.226,1.226,0,0,1,1.181,1.268v.011A1.2,1.2,0,0,1,43.27,4.111l-.062,0-42-1.65A1.229,1.229,0,0,1,1.253,0Z"/></g></g><g class="aq" transform="translate(372.276 207.294)"><g transform="translate(0 0)"><path class="ap" d="M1.247,0h.029L68.143,1.651A1.226,1.226,0,0,1,69.34,2.9V2.91a1.183,1.183,0,0,1-1.164,1.2c-.032,0-.064,0-.1,0L1.215,2.459A1.23,1.23,0,1,1,1.246,0Z"/></g></g><path class="q" d="M.592,15.316C3.657,3.678,17.78-2.691,32.135,1.09s23.5,16.282,20.439,27.917S35.386,47.014,21.031,43.233-2.474,26.954.592,15.316Z" transform="translate(415.283 149.534)"/><g transform="translate(351.027 250.598)"><path class="c" d="M4.069,22.921l3.337,2.466L38.592,14.072,36.412,0A298.012,298.012,0,0,1,0,10.881Z" transform="translate(253.258 46.323)"/><path class="f" d="M11.583,56.8C6.65,58.233-1.586,58.668.267,44.661c0,0,10.707-39.477,22.478-44.531a1.58,1.58,0,0,1,2.077.826c.011.025.021.051.031.076,1.39,3.828,3.6,16.825-8.716,51.478A6.863,6.863,0,0,1,11.583,56.8Z" transform="translate(287.957 3.551)"/><g transform="translate(295.235 0)"><g class="ar"><g transform="translate(-7.276 3.551)"><path class="as" d="M11.583,56.8C6.65,58.234-1.586,58.668.267,44.661c0,0,10.707-39.478,22.479-44.531a1.58,1.58,0,0,1,2.077.826c.011.025.021.051.031.076,1.39,3.828,3.6,16.825-8.716,51.478A6.862,6.862,0,0,1,11.583,56.8Z"/></g></g></g><path class="c" d="M11.018,27.675,34.675,16.963l4.9-.6L40.918,0S16.813,9.226,0,12.35Z" transform="translate(303.971 70.763)"/><path class="f" d="M15.38,38.02s-25.457,8.594-10.867-14.3c0,0,34.676-41.348,25.6-14.862C30.111,8.856,19.582,36.449,15.38,38.02Z" transform="translate(338.442 47.772)"/><g transform="translate(338.441 47.772)"><path class="f" d="M15.38,38.02s-25.457,8.594-10.867-14.3c0,0,34.676-41.348,25.6-14.862C30.111,8.856,19.582,36.449,15.38,38.02Z"/><g class="at"><g transform="translate(10.897 -3.581)"><path class="as" d="M15.815,39.96S-7.868,52.649,2.729,27.654c0,0,27.357-46.514,22.787-18.891C25.518,8.761,19.7,37.717,15.815,39.96Z"/></g></g></g><path class="f" d="M62.966,132.326s15.545-5.182,23.118-30.691c0,0,11.558-30.888,58.988-50.319,0,0,3.587-13.943-10.759-27.05,0,0-61.379,16.786-86.884,65.014V41.451L90.076,24.266S93.664,13.154,80.111,0c0,0-35.074,7.573-52.611,21.123,0,0-16.74,10.328-27.5,93.249l29.493,22.549Z" transform="translate(172.018 48.21)"/><g transform="translate(172.018 48.21)"><g class="au"><g transform="translate(46.846 60.722)"><path class="i" d="M22.788,0S11.33,8.187,12.941,35.169c0,0,0,15.431-12.358,25.371,0,0,2.956-12.089,0-22.027a38.976,38.976,0,0,1,0-13.433L6.769,1.44Z"/></g></g></g><path class="c" d="M17.283,37.248A26.407,26.407,0,0,0,3.831,25.089a6.435,6.435,0,0,1,1.811-2.2S-5.742,10.341,3.831,8.271a28.194,28.194,0,0,0,6.856-3.233L24.4,0H35.134s6.984,15.006,6.6,16.429-5.562,13.71-5.562,13.71Z" transform="translate(97.44 270.1)"/><path class="c" d="M87.291,21.637S57.971,26.445,26.585,59.224c0,0-.165,19-6.7,21.045,0,0-3,.818,1.089-12.392a73.417,73.417,0,0,0-18.384,22.2S-2.18,85.531,5.72,66.212A45.66,45.66,0,0,1,0,74,45.258,45.258,0,0,1,17.158,48.534S60.793,3.9,87.921,0l8.007,8.609-3,9.708Z" transform="translate(0 255.733)"/><path class="i" d="M28.756,66.648S46.35,35.692,52.946,20.637L26.555,0S25.874,12.518,0,45Z" transform="translate(50.239 126.421)"/><path class="c" d="M40.278,66.223s5.228-34.662-20.14-46.277c0,0-12.006,2.323-20.138,1.161,0,0,.773-6,8.52-6.2L15.874,0s7.354,4.955,9.488,11.095c0,0,31.174,6.139,39.694,43.316Z" transform="translate(85.183 151.488)"/><path class="ao" d="M138.635,28.006s29.158-13.166,8.036-9.26c0,0-33.673,3-63.753-18.745,0,0-4.065,30.892-24.388,46.541,0,0-22.762-3.658-25.4,22.559,0,0-3.863,18.29-33.127,25.4,0,0,9.552,5.61,1.017,21.808,0,0,28.452-4.94,42.475-5.957L80.534,98.123l29.639-31.69S123.447,49.363,129.526,34A39.56,39.56,0,0,1,138.635,28.006Z" transform="translate(86.27 161.056)"/><path class="i" d="M155.106,43.972s-8.119,9.133-39.578,4.668c0,0-48.445-13.641-60.685,7.714,0,0-19.08,47.29-46.072,38.562,0,0-17.081-6.743-3.57-23.261a62.391,62.391,0,0,1,4.948-5.391s6.694,1.635,7.38-4.719c0,0,.514-5.922-6.264-5.15,0,0,2.071-15.388,25.086-21.483A32,32,0,0,0,61.33,16.895s21.027-37.14,49.578-1.287C110.908,15.612,134.117,49.827,155.106,43.972Z" transform="translate(113.111 224.293)"/><g transform="translate(65.723 167.636)"><g transform="translate(1.542 9.53)"><path class="m" d="M.916,0a.906.906,0,0,1,.545.175l9.291,6.733a.923.923,0,1,1-1.08,1.5L.381,1.673A.921.921,0,0,1,.925.005Z"/></g><g transform="translate(0 0)"><path class="m" d="M.919,0a.919.919,0,0,1,.545.179L15.442,10.5a.922.922,0,0,1-1.089,1.485L.374,1.665A.923.923,0,0,1,.92,0Z"/></g></g></g></g></g></g></svg>