<svg xmlns="http://www.w3.org/2000/svg" xmlns:xlink="http://www.w3.org/1999/xlink" width="755.944" height="467.29" viewBox="0 0 755.944 467.29"><defs><style>.a{fill:none;}.b{fill:#ff3948;}.c{fill:#fc4d5b;}.d{fill:#fff;}.e{opacity:0.5;}.f{clip-path:url(#a);}.g{fill:#fe5b68;}.h{clip-path:url(#b);}.i{opacity:0.8;}.j{clip-path:url(#c);}.k{clip-path:url(#d);}.l{clip-path:url(#e);}.m{clip-path:url(#f);}.n{clip-path:url(#g);}.o{clip-path:url(#h);}.p{clip-path:url(#i);}.q{clip-path:url(#j);}.r{clip-path:url(#k);}.s{clip-path:url(#l);}.t{fill:#babfe8;}.u{clip-path:url(#m);}.v{clip-path:url(#n);}.w{clip-path:url(#o);}.x{clip-path:url(#p);}.y{clip-path:url(#q);}.z{clip-path:url(#r);}.aa{clip-path:url(#s);}.ab{fill:#ff8b2c;}.ac{clip-path:url(#t);}.ad{clip-path:url(#u);}.ae{clip-path:url(#v);}.af{clip-path:url(#w);}.ag{clip-path:url(#x);}.ah{clip-path:url(#y);}.ai{clip-path:url(#z);}.aj{clip-path:url(#aa);}.ak{clip-path:url(#ab);}.al{clip-path:url(#ac);}.am{clip-path:url(#ad);}.an{fill:#ba95f4;}.ao{clip-path:url(#ae);}.ap{clip-path:url(#af);}.aq{fill:#ebedff;}.ar{fill:#ffb7bc;}.as{fill:#ff919a;}.at{fill:#272628;}.au{opacity:0.35;}.au,.bl{mix-blend-mode:multiply;}.au,.az,.bl{isolation:isolate;}.av{clip-path:url(#ai);}.aw{fill:#441982;}.ax{fill:#f46e00;}.ay{fill:#976cea;}.az{opacity:0.25;mix-blend-mode:overlay;}.ba{clip-path:url(#aj);}.bb{fill:#ffa683;}.bc{fill:#f48260;}.bd{fill:#1b1a1c;}.be{fill:#5725a5;}.bf{fill:#1d1d1e;}.bg{clip-path:url(#ak);}.bh{clip-path:url(#al);}.bi{clip-path:url(#am);}.bj{clip-path:url(#an);}.bk{fill:#181819;}.bl{opacity:0.42;}.bm{clip-path:url(#ao);}.bn{fill:#7327cc;}.bo{clip-path:url(#ap);}.bp{fill:#e6e1ef;}.bq{fill:#231f20;}.br{clip-path:url(#aq);}.bs{clip-path:url(#ar);}.bt{clip-path:url(#as);}.bu{clip-path:url(#at);}</style><clipPath id="a"><rect class="a" width="224.858" height="147.209"/></clipPath><clipPath id="b"><rect class="b" width="66.736" height="97.66"/></clipPath><clipPath id="c"><rect class="a" width="23.38" height="14.353"/></clipPath><clipPath id="d"><rect class="a" width="34.985" height="35.195"/></clipPath><clipPath id="e"><rect class="a" width="66.738" height="97.66"/></clipPath><clipPath id="f"><rect class="c" width="23.38" height="14.353"/></clipPath><clipPath id="g"><rect class="a" width="34.986" height="35.195"/></clipPath><clipPath id="h"><rect class="a" width="383.868" height="14.019"/></clipPath><clipPath id="i"><rect class="a" width="329.49" height="192.968"/></clipPath><clipPath id="j"><rect class="a" width="329.49" height="20.582"/></clipPath><clipPath id="k"><rect class="a" width="147.841" height="91.704"/></clipPath><clipPath id="l"><rect class="a" width="14.997" height="90.329"/></clipPath><clipPath id="m"><rect class="a" width="54.081" height="71.84"/></clipPath><clipPath id="n"><rect class="a" width="32.397" height="71.84"/></clipPath><clipPath id="o"><rect class="a" width="79.307" height="6.378"/></clipPath><clipPath id="p"><rect class="a" width="122.8" height="29.45"/></clipPath><clipPath id="q"><rect class="a" width="126.627" height="20.57"/></clipPath><clipPath id="r"><rect class="a" width="121.376" height="25.771"/></clipPath><clipPath id="s"><rect class="a" width="121.376" height="9.027"/></clipPath><clipPath id="t"><rect class="a" width="54.801" height="163.902"/></clipPath><clipPath id="u"><rect class="a" width="48.105" height="163.902"/></clipPath><clipPath id="v"><rect class="a" width="33.895" height="192.659"/></clipPath><clipPath id="w"><rect class="a" width="32.003" height="186.454"/></clipPath><clipPath id="x"><rect class="a" width="64.948" height="139.63"/></clipPath><clipPath id="y"><rect class="a" width="62.051" height="138.429"/></clipPath><clipPath id="z"><rect class="a" width="98.805" height="112.905"/></clipPath><clipPath id="aa"><rect class="a" width="89.202" height="79.295"/></clipPath><clipPath id="ab"><rect class="a" width="98.343" height="96.732"/></clipPath><clipPath id="ac"><rect class="a" width="97.314" height="9.932"/></clipPath><clipPath id="ad"><rect class="a" width="41.547" height="96.732"/></clipPath><clipPath id="ae"><rect class="a" width="132.132" height="118.763"/></clipPath><clipPath id="af"><rect class="a" width="112.32" height="28.273"/></clipPath><clipPath id="ai"><rect class="a" width="25.665" height="109.697"/></clipPath><clipPath id="aj"><rect class="a" width="178.598" height="104.955"/></clipPath><clipPath id="ak"><rect class="a" width="32.243" height="22.539"/></clipPath><clipPath id="al"><rect class="a" width="11.776" height="18.13"/></clipPath><clipPath id="am"><rect class="a" width="7.591" height="21.907"/></clipPath><clipPath id="an"><rect class="a" width="37.524" height="53.821"/></clipPath><clipPath id="ao"><rect class="a" width="38.849" height="49.412"/></clipPath><clipPath id="ap"><rect class="a" width="43.852" height="28.67"/></clipPath><clipPath id="aq"><rect class="a" width="120.67" height="82.255"/></clipPath><clipPath id="ar"><rect class="a" width="120.658" height="11.963"/></clipPath><clipPath id="as"><rect class="a" width="19.592" height="19.542"/></clipPath><clipPath id="at"><rect class="a" width="19.604" height="19.542"/></clipPath></defs><g transform="translate(-670.529 -185.419)"><g transform="translate(806.185 185.419)"><path class="d" d="M1011.232,185.419H792.847A12.777,12.777,0,0,0,780.07,198.2V338.927A12.777,12.777,0,0,0,792.847,351.7h218.385a12.777,12.777,0,0,0,12.776-12.777V198.2a12.776,12.776,0,0,0-12.776-12.777" transform="translate(-780.07 -185.419)"/><g class="e" transform="translate(9.54 9.538)"><g class="f"><path class="g" d="M3.236,0H221.621a3.237,3.237,0,0,1,3.237,3.237v140.73a3.237,3.237,0,0,1-3.237,3.237H3.238A3.238,3.238,0,0,1,0,143.965V3.236A3.236,3.236,0,0,1,3.236,0Z" transform="translate(0 0.002)"/></g></g><g class="e" transform="translate(167.662 9.538)"><g class="h"><path class="b" d="M978.954,193.122h-63.5c3.427,16.509,16.369,70.673,43.355,97.659h23.38V196.359a3.242,3.242,0,0,0-3.238-3.237" transform="translate(-915.455 -193.12)"/></g></g><g class="i" transform="translate(211.018 107.198)"><g class="j"><path class="b" d="M950.466,271.98v14.35h23l.379-14.35Z" transform="translate(-950.465 -271.981)"/></g></g><g class="e" transform="translate(199.413 121.551)"><g class="k"><path class="b" d="M976.08,315.528V283.785l-.379-.218h-23s-10.972,28.382-11.606,35.031l.381.166h31.366a3.241,3.241,0,0,0,3.238-3.236" transform="translate(-941.095 -283.571)"/></g></g><g class="e" transform="translate(10.03 9.538)"><g class="l"><path class="b" d="M791.407,193.122h63.5c-3.427,16.509-16.369,70.673-43.355,97.659H788.17V196.359a3.242,3.242,0,0,1,3.237-3.237" transform="translate(-788.169 -193.12)"/></g></g><g class="i" transform="translate(10.03 107.198)"><g class="m"><path class="b" d="M811.55,271.98v14.35h-23l-.379-14.35Z" transform="translate(-788.169 -271.981)"/></g></g><g class="e" transform="translate(10.03 121.551)"><g class="n"><path class="g" d="M788.17,315.528V283.785l.379-.218h23s10.972,28.382,11.606,35.031l-.381.166H791.407a3.241,3.241,0,0,1-3.237-3.236" transform="translate(-788.169 -283.571)"/></g></g></g><g transform="translate(1042.605 317.657)"><g transform="translate(0 125.933)"><g class="e"><g class="o"><path class="g" d="M0,0H383.869V14.014H0Z" transform="translate(0 0.007)"/></g></g><g class="e" transform="translate(23.356 14.019)"><g class="p"><rect class="g" width="329.485" height="192.961" transform="translate(0 0.002)"/></g></g><g class="e" transform="translate(23.356 14.019)"><g class="q"><path class="b" d="M0,0H329.485V20.581H0Z" transform="translate(0 0.001)"/></g></g></g><g transform="translate(33.449)"><g class="e"><g class="r"><path class="b" d="M1134.469,383.91h-125.12a11.361,11.361,0,0,1-11.361-11.362V303.563a11.361,11.361,0,0,1,11.361-11.361h125.12a11.362,11.362,0,0,1,11.361,11.361v68.984a11.362,11.362,0,0,1-11.361,11.362" transform="translate(-997.986 -292.2)"/></g></g><g class="e" transform="translate(132.844 0.694)"><g class="s"><path class="b" d="M1112.756,292.756a11.355,11.355,0,0,0-7.5,10.675v68.984a7.975,7.975,0,1,0,15.007,0V303.431a11.357,11.357,0,0,0-7.5-10.675" transform="translate(-1105.258 -292.761)"/></g></g><path class="t" d="M1087.652,397.514h-16.481V335.287H1038.38v71.84h49.272a4.806,4.806,0,1,0,0-9.612" transform="translate(-988.356 -281.928)"/><g class="e" transform="translate(50.019 53.363)"><g class="u"><path class="g" d="M1087.381,397.514h-16.209V335.287H1038.38v62.227a9.612,9.612,0,0,0,9.612,9.612h39.66a4.807,4.807,0,0,0,4.8-5.065,4.988,4.988,0,0,0-5.071-4.547" transform="translate(-1038.376 -335.292)"/></g></g><g class="e" transform="translate(71.704 53.363)"><g class="v"><path class="b" d="M1088.287,402.321a4.806,4.806,0,0,0-4.807-4.806H1067V335.287h-11.117v62.227a9.613,9.613,0,0,0,9.613,9.612h17.984a4.806,4.806,0,0,0,4.807-4.806" transform="translate(-1055.887 -335.292)"/></g></g><g class="e" transform="translate(28.62 6.886)"><g class="w"><path class="b" d="M1097.213,297.761h-72.931a3.188,3.188,0,0,0,0,6.377h72.931a3.188,3.188,0,0,0,0-6.377" transform="translate(-1021.097 -297.76)"/></g></g></g><g transform="translate(202.888 50.317)"><g class="e" transform="translate(11.814 46.378)"><g class="x"><path class="b" d="M0,0H122.805V29.448H0Z" transform="translate(-0.004 0.005)"/></g></g><g class="e" transform="translate(0 25.808)"><g class="y"><path class="g" d="M0,0H126.616V20.578H0Z" transform="translate(0.005 -0.002)"/></g></g><g class="e" transform="translate(12.334)"><g class="z"><path class="b" d="M0,0H121.374V25.774H0Z" transform="translate(0.004 0.004)"/></g></g><g class="e" transform="translate(12.334 16.743)"><g class="aa"><rect class="b" width="121.374" height="9.03" transform="translate(0.004 0.004)"/></g></g><path class="ab" d="M1210.057,369.35l-40.522,3.525-.557-13.925,42.784-9.767Z" transform="translate(-1126.66 -328.932)"/></g></g><g transform="translate(670.529 380.321)"><g class="e" transform="translate(59.349 11.753)"><g class="ac"><path class="g" d="M768.086,515.743l2.136.448c2.51-6.732,4.783-17.117,1.094-28.025-6.289-18.6-9.309-42.023-21.343-59.607-16.441-24.026-20.388-76.271-20.388-76.271s-20.015,41.446-6.373,80.511,29.776,49.3,37.937,56.931c8.716,8.146,8.543,18.714,6.936,26.013" transform="translate(-718.453 -352.291)"/></g></g><g class="e" transform="translate(66.045 11.753)"><g class="ad"><path class="b" d="M767.253,515.838l1.681.353c2.51-6.732,4.783-17.116,1.094-28.025-6.289-18.6-9.308-42.023-21.343-59.607-16.441-24.026-20.388-76.271-20.388-76.271s-11.065,55.854,1.751,75.528,13.4,14.883,22.609,33.573,12.119,23.994,14.92,34.86c1.792,6.955.7,14.806-.325,19.589" transform="translate(-723.86 -352.291)"/></g></g><g class="e" transform="translate(114.915 0)"><g class="ae"><path class="g" d="M768,533.268s4.092-6.1,1.692-28.883-8.951-44.57-5.279-69.413,30.767-87.856,30.909-92.013,7.173,72.5-6.811,103.05-15.757,41.077-15.36,56.981-.509,28.735-2.048,32.465Z" transform="translate(-763.321 -342.801)"/></g></g><g class="e" transform="translate(114.915 0.161)"><g class="af"><path class="b" d="M771.083,487.254c1.449,10.155,2.074,35.678-.531,41.844-.243.577-.578.258-.986-.788.823-4.24,1.424-11.65.128-23.958-2.4-22.782-8.951-44.569-5.279-69.413s30.768-87.856,30.909-92.013c0,0-4.632,52.128-18.436,88.228-9.882,25.846-7.255,45.946-5.8,56.1" transform="translate(-763.322 -342.931)"/></g></g><g class="e" transform="translate(130.744 46.007)"><g class="ag"><path class="g" d="M779.627,519.583s-11.869-32.7,7.959-60.889,51.568-64.371,52.154-78.748c0,0,8.425,68.3-17.444,87.533s-44.046,22.241-39.446,51.993Z" transform="translate(-776.103 -379.951)"/></g></g><g class="e" transform="translate(133.641 46.007)"><g class="ah"><path class="b" d="M806.836,453.7C778,477,775.726,503.96,780.256,516.486a3.026,3.026,0,0,0,1.89,1.892c-3.976-28.719,14.051-31.914,39.593-50.9,25.869-19.227,17.444-87.533,17.444-87.533s-3.508,50.448-32.347,73.751" transform="translate(-778.443 -379.951)"/></g></g><g class="e" transform="translate(0 80.979)"><g class="ai"><path class="g" d="M769.334,520.807l-6.526-23.593c-24.289-86.159-92.279-89.026-92.279-89.026,7.1,1.416,44,29.543,49.713,54.574,2.685,11.755,14.695,20.1,25.3,25.63a31.529,31.529,0,0,1,15.668,19.318c2.025,7.1,3.092,13.393,3.092,13.393Z" transform="translate(-670.528 -408.191)"/></g></g><g class="e" transform="translate(0 80.979)"><g class="aj"><path class="b" d="M732.365,463.953C740.313,479.2,750.55,485.4,759.73,487.49c-26.467-76.613-89.2-79.3-89.2-79.3,1.4.279,4,1.635,7.262,3.772,13.075,7.3,40.536,25.064,54.575,51.993" transform="translate(-670.529 -408.191)"/></g></g><g class="e" transform="translate(65.382 172.906)"><g class="ak"><path class="g" d="M808.026,482.423H736.964a13.638,13.638,0,0,0-13.427,16.02L736.3,570.4a10.607,10.607,0,0,0,10.443,8.754h51.508a10.608,10.608,0,0,0,10.445-8.754l12.761-71.955a13.639,13.639,0,0,0-13.428-16.02" transform="translate(-723.323 -482.42)"/></g></g><g class="e" transform="translate(65.897 172.906)"><g class="al"><path class="b" d="M821.053,492.351a13.641,13.641,0,0,0-13.126-9.928H736.865a13.64,13.64,0,0,0-13.126,9.928Z" transform="translate(-723.74 -482.42)"/></g></g><g class="e" transform="translate(122.177 172.906)"><g class="am"><path class="b" d="M797.094,482.423h-18.13a13.638,13.638,0,0,1,13.427,16.02L779.63,570.4a10.607,10.607,0,0,1-10.444,8.754h18.129A10.607,10.607,0,0,0,797.76,570.4l12.761-71.955a13.639,13.639,0,0,0-13.427-16.02" transform="translate(-769.185 -482.42)"/></g></g><path class="an" d="M810.694,369.223l.274.4-1.669,3.527c.476-1.424.951-2.733,1.4-3.929" transform="translate(-637.445 -336.501)"/></g><g transform="translate(903.846 531.121)"><g class="e"><g class="ao"><rect class="g" width="132.13" height="118.757" transform="translate(0.001 0.004)"/></g></g><g class="e" transform="translate(9.906 9.907)"><g class="ap"><path class="b" d="M0,0H112.318V28.268H0Z" transform="translate(0 0.002)"/></g></g><g class="e" transform="translate(9.906 45.511)"><g class="ap"><rect class="b" width="112.318" height="28.267" transform="translate(0 0.005)"/></g></g><g class="e" transform="translate(9.906 82.564)"><g class="ap"><rect class="b" width="112.318" height="28.267" transform="translate(0 0.002)"/></g></g><path class="aq" d="M918.972,485.721a5.613,5.613,0,1,1-5.614-5.612,5.612,5.612,0,0,1,5.614,5.612" transform="translate(-847.293 -460.866)"/><path class="aq" d="M918.972,514.34a5.613,5.613,0,1,1-5.614-5.611,5.613,5.613,0,0,1,5.614,5.611" transform="translate(-847.293 -454.043)"/><path class="aq" d="M918.972,545.984a5.613,5.613,0,1,1-5.614-5.614,5.613,5.613,0,0,1,5.614,5.614" transform="translate(-847.293 -446.5)"/></g><g transform="translate(800.026 253.695)"><g transform="translate(26.489 149.908)"><g transform="translate(0 106.249)"><path class="b" d="M839.932,548.515v12.046a5.325,5.325,0,0,1-5.024,5.584H798.461c-1.96,0-2.721-2.835-1.074-4.019,4.815-3.459,20.753-8.422,25.8-11.869Z" transform="translate(-796.486 -423.289)"/><path class="ar" d="M845.34,452.488c-2.4,32.2-8.82,116.365-10.474,121.084-2.043,5.843-18.16,2.721-17.138,1.037.345-.589,3.411-.937,5.541-5.569.661-1.423.431-10.3.317-11.857-1.023-14.273-6.232-87.672-7.7-109.787a137.923,137.923,0,0,0,29.454,5.092" transform="translate(-791.861 -447.396)"/><path class="b" d="M851.719,548.515v12.046a5.325,5.325,0,0,0,5.023,5.584H893.19c1.96,0,2.722-2.835,1.074-4.019-4.814-3.459-20.753-8.422-25.8-11.869Z" transform="translate(-783.319 -423.289)"/><path class="ar" d="M871.23,574.368c1.007,1.683-15.094,4.806-17.137-1.036-1.641-4.7-8.043-88.593-10.461-120.91a93.355,93.355,0,0,0,29.354-4.014c-1.583,23.5-6.633,94.52-7.626,108.536-.1,1.554-.332,10.432.317,11.855,2.128,4.633,5.194,4.978,5.553,5.569" transform="translate(-785.247 -447.155)"/><path class="as" d="M845.343,452.488c-2.4,32.19-8.82,116.365-10.474,121.084-.547,1.554-2.088,2.476-4.045,2.95,6.419-21.367,5.838-121.32,5.838-121.32-6.691.215-15.023-3.151-20.676-5.656-.159-2.4.02-.365-.111-2.15a137.906,137.906,0,0,0,29.469,5.092" transform="translate(-791.864 -447.396)"/><path class="as" d="M865.677,568.8c-.648-1.423-.419-10.3-.317-11.855,1.008-14.016,6.043-85.054,7.626-108.536-1.186.372-2.377.7-3.565,1.012-.634.167-1.269.322-1.9.474q-1.038.249-2.076.471a98.061,98.061,0,0,1-21.808,2.057c.057.764.118,1.564.18,2.381,4.088-.014,14.094-.15,20.317-1.071-.958,18.3-5.634,111.16-2.409,117.4.92,1.813,3.755,3.352,7.409,4.648,1.482-.447,2.359-.978,2.1-1.411-.359-.589-3.424-.936-5.553-5.569" transform="translate(-785.247 -447.155)"/></g><g transform="translate(8.413)"><path class="at" d="M897.686,463.187c-40.361,22.362-91.153,0-91.153,0-7.569-39.583-.317-71.326,5.409-88.161l.028-.057c.476-1.424.951-2.733,1.4-3.928a86.314,86.314,0,0,1,3.9-9.095h.029c2.188,1.44,29.225,18.375,66.074,0h.706s-.015-.027-.043-.072-.057-.114-.1-.214c-.015-.015-.015-.045-.03-.058h.244c18.893,47.915,13.541,101.585,13.541,101.585" transform="translate(-803.28 -361.6)"/><g class="au" transform="translate(69.442)"><g class="av"><path class="aw" d="M884.318,463.187a78.072,78.072,0,0,1-22.533,8.117c9.842-26.447.863-85.715-2.431-104.9A84.266,84.266,0,0,0,870,361.946h.706s-.015-.027-.043-.072-.057-.114-.1-.214c-.015-.015-.015-.045-.03-.058h.244c18.893,47.915,13.541,101.585,13.541,101.585" transform="translate(-859.353 -361.6)"/></g></g></g></g><g transform="translate(0 50.526)"><path class="g" d="M892.142,333.109a19.547,19.547,0,0,1,2.161,9.83,13.138,13.138,0,0,1-4.024,8.466,15.937,15.937,0,0,0-1.33,1.506c-.1.12-.188.243-.277.367-7.075,9.65-.365,23.619.731,25.75.048.093.084.159.11.207l.035.071h-.7c-36.85,18.382-63.892,1.445-66.08,0h-.145a.765.765,0,0,0,.036-.071c.608-1.136,8.219-15.892.841-25.957a15.779,15.779,0,0,0-1.607-1.872c-5.912-5.916-4.26-15.411-1.8-20.548l-20.451,28.825L819.12,388.8l-5.647,11.88s-38.954-36.908-38.37-39.633,31.161-56.874,41.292-64.081,30.382-8.18,30.382-8.18h14.8s15.1-.78,27.512,7.984l25.722,25.65,33.579-33.1,8.918,5.407s-30.335,41.084-41.125,53.386a4.873,4.873,0,0,1-6.932.412Z" transform="translate(-775.097 -279.582)"/><path class="g" d="M895.855,344.11c-6.344,4.89-33.182-29.2-28.885-21.72s-3.341,17.187-10.185,33.9c-5.911,14.436.287,24.114,2.085,26.483a86.023,86.023,0,0,0,11.1-4.609h.7s-.012-.021-.035-.071-.062-.113-.11-.207c-1.1-2.13-7.806-16.1-.731-25.75.088-.124.181-.246.277-.365a15.577,15.577,0,0,1,1.33-1.506,13.15,13.15,0,0,0,4.024-8.466,19.565,19.565,0,0,0-2.161-9.832l17.11,15.418a4.875,4.875,0,0,0,6.933-.412c10.79-12.3,41.125-53.388,41.125-53.388-.094-.523-35.474,45.057-42.576,50.529" transform="translate(-756.217 -278.436)"/><path class="ax" d="M816.4,325.558s3.77-11.778,6.235-14.562c0,0-30.555,39.068-31.987,43.525S815.427,383.5,815.427,383.5l-19.478-29.119Z" transform="translate(-771.402 -274.283)"/><path class="ay" d="M811.76,322.755a23.388,23.388,0,0,0-1.7,5.065Z" transform="translate(-766.761 -271.479)"/><g class="az" transform="translate(0.05 9.66)"><g class="ba"><path class="d" d="M858.342,289.146H831.1a95.041,95.041,0,0,0-11.354,1.993h47.417a51.765,51.765,0,0,0-8.821-1.993" transform="translate(-764.503 -289.152)"/><path class="d" d="M915.4,289.214l-1.937,1.91h5.086Z" transform="translate(-742.159 -289.135)"/><path class="d" d="M922.768,297.461H907.055l-2.022,1.993h16.253c.53-.713,1.023-1.373,1.482-1.993" transform="translate(-744.17 -287.169)"/><path class="d" d="M884.781,297.461H806.548c-.56.6-1.142,1.256-1.759,1.993H886.78Z" transform="translate(-768.068 -287.169)"/><path class="d" d="M917.085,305.775H898.62l-2.021,1.993h18.988l1.5-1.993" transform="translate(-746.181 -285.187)"/><path class="d" d="M896.575,305.775H800.008q-.682.973-1.378,1.993h99.944Z" transform="translate(-769.537 -285.187)"/><path class="d" d="M908.2,314.089H794.447q-.635.99-1.272,1.993H910.2Z" transform="translate(-770.837 -283.205)"/><path class="d" d="M911.322,314.089H890.186l-2.022,1.993h21.641q.764-1,1.517-1.993" transform="translate(-748.192 -283.205)"/><path class="d" d="M817.01,322.839c-.23.48-.448,1.008-.659,1.558H925.766q.765-.985,1.544-1.994H789.247c-.406.667-.806,1.331-1.208,1.994H815.9Z" transform="translate(-772.061 -281.223)"/><path class="d" d="M811.185,330.717h-26.9c-.393.676-.778,1.337-1.158,1.994H809.77Z" transform="translate(-773.233 -279.241)"/><path class="d" d="M878.642,332.711h17.9c.521-.642,1.056-1.3,1.609-1.993H876.43Z" transform="translate(-750.989 -279.241)"/><path class="d" d="M809.735,332.711H886.08a14.84,14.84,0,0,0-.011-1.993H809.626a19.222,19.222,0,0,0,.109,1.993" transform="translate(-766.915 -279.241)"/><path class="d" d="M805,339.032h-25.48q-.578,1.038-1.1,1.993h25.169Z" transform="translate(-774.355 -277.259)"/><path class="d" d="M812.953,339.422a15.984,15.984,0,0,1,1.393,1.6h65.59c.025-.033.047-.067.072-.1a15.94,15.94,0,0,1,1.331-1.507c.128-.128.237-.261.359-.39H812.605c.119.128.222.265.348.39" transform="translate(-766.205 -277.259)"/><path class="d" d="M800.723,347.346H775.138a7.642,7.642,0,0,0,1.262,1.993h25.656Z" transform="translate(-775.137 -275.276)"/><path class="d" d="M816.784,349.338h58.8q.024-.994.141-1.991H816.648c.078.665.12,1.33.136,1.991" transform="translate(-765.241 -275.276)"/><path class="d" d="M815.394,357.653h62.179c-.207-.628-.4-1.3-.592-1.993H815.989c-.187.7-.388,1.363-.594,1.993" transform="translate(-765.54 -273.294)"/><path class="d" d="M805.927,355.66H782.2c.623.648,1.271,1.315,1.93,1.993h23.126Z" transform="translate(-773.453 -273.294)"/><path class="d" d="M822.236,365.968H867.71q2.612-.879,5.31-1.993H817.438c1.342.633,2.955,1.318,4.8,1.993" transform="translate(-765.053 -271.312)"/><path class="d" d="M810.852,363.974H790.431q1.011,1,2.02,1.994h19.734Z" transform="translate(-771.491 -271.312)"/><path class="d" d="M811.821,372.289H798.94c.722.7,1.406,1.359,2.067,1.993h9.866Z" transform="translate(-769.463 -269.33)"/></g></g><path class="bb" d="M915.8,291.648s6.327-9.965,8.225-10.282-.317,4.271-.317,4.271,6.96-4.191,11.942-2.926-10.443,8.764-12.421,13.51c0,0-7.746-4.572-7.429-4.572" transform="translate(-741.556 -281.35)"/><path class="bb" d="M819.6,378.033c0-.809-7.658-7.167-8.185-7.489-.073-.1-.137-.209-.211-.31l-4.874,10.18s11.782,9.891,12.95,8.918c.8-.663-2.017-5.091-4.058-11.082,2.032-.255,4.378.359,4.378-.217" transform="translate(-767.65 -260.16)"/></g><g transform="translate(53.349)"><path class="bb" d="M846.762,291.991l-6.819,4.151-7.263-4.151V278.383h14.082Z" transform="translate(-814.718 -231.532)"/><path class="bc" d="M846.76,282.752v2.8a10.891,10.891,0,0,1-6.5,2.15,13.229,13.229,0,0,1-7.575-2.2v-2.8a13.219,13.219,0,0,0,7.575,2.2,10.91,10.91,0,0,0,6.5-2.152" transform="translate(-814.717 -230.502)"/><path class="bb" d="M856.526,268.468c-.078,0-.151.02-.229.022v-3.424s-19.665,1.233-23.226-6.665c-.326-.72-5.236,8.341-5.236,8.341v1.819a4.962,4.962,0,0,0-4.031,4.869c0,2.341,2.194,4.884,4.541,5.583,1.16,3.865,4.664,11.694,14.029,11.694,7.64,0,11.622-7.632,13.157-11.523.073,0,.136.031.209.031,2.741,0,5.749-3.044,5.749-5.785a4.963,4.963,0,0,0-4.962-4.962" transform="translate(-816.834 -236.306)"/><path class="bd" d="M856.834,283.53a.5.5,0,0,1,.243-.071c2.745,0,5.75-3.046,5.75-5.778a4.956,4.956,0,0,0-4.964-4.962c-.072,0-.142.014-.229.014v-3.417s-19.665,1.23-23.225-6.665c-.315-.729-5.235,8.338-5.235,8.338V272.8a4.972,4.972,0,0,0-4.033,4.877c0,2.331,2.2,4.878,4.547,5.578.773,2.575,2.575,6.879,6.451,9.5v5.75c-23.657-14.239-20.924-45.231-9.1-51.08,5.307-2.6,7.879-.479,7.879-.479,18.539-16.31,33.583,2.869,38.113,10.187,6.207,10.026,31.271,75.67,5.251,84.5-47.622,16.165-32.632-44.123-28.075-48.819,3.915-4.034,6.208-7.579,6.624-9.287" transform="translate(-818.175 -240.551)"/><path class="bb" d="M844.375,282.742v8.212l-1.688,1.025c.062-.35.121-.695.182-1.029.665-3.744,1.235-6.675,1.506-8.208" transform="translate(-812.332 -230.493)"/><path class="bb" d="M851.471,265.056v10.307s-2.067,7.729-7.421,11.6c.77-4.369,6.513-17.223,7.421-21.9" transform="translate(-812.007 -234.709)"/></g></g><g transform="translate(1005.948 250.219)"><g transform="translate(0 172.868)"><path d="M967.35,545.476c-4.488,8.992-25.483,13.374-25.483,13.374s-1.536,2.651.827,6.042,24.432,1.518,27.2.93a9.623,9.623,0,0,0,4.691-2.816,15.384,15.384,0,0,0,2.869,2.54c1.032.506,6.672-.572,6.672-.572,1.356-3.579.155-17.307-.206-19.5Z" transform="translate(-941.377 -337.248)"/><path d="M1040.571,545.476c4.488,8.992,25.483,13.374,25.483,13.374s1.536,2.651-.827,6.042-24.432,1.518-27.2.93a9.623,9.623,0,0,1-4.692-2.816,15.386,15.386,0,0,1-2.87,2.54c-1.031.506-6.672-.572-6.672-.572-1.356-3.579-.155-17.307.207-19.5Z" transform="translate(-921.88 -337.248)"/><path class="be" d="M1044.719,585.542h-6.531l-21.31-208.208h15.655s9.713,134.68,12.187,208.208" transform="translate(-923.377 -377.334)"/><path class="at" d="M1058.166,585.54c-2.478-73.533-12.186-208.205-12.186-208.205H972.653s-9.708,134.673-12.187,208.205h20.863s23.692-158.173,28.288-172.65c4.6,14.477,27.687,172.65,27.687,172.65Z" transform="translate(-936.826 -377.334)"/><path class="bf" d="M1044.719,585.542h-6.531l-21.31-208.208h15.655s9.713,134.68,12.187,208.208" transform="translate(-923.377 -377.334)"/><path class="bf" d="M1006.853,406.024h0a22.353,22.353,0,0,0-7.692,13.322L971.4,578.7h7.324s19.537-133.052,28.13-172.677" transform="translate(-934.219 -370.494)"/></g><g transform="translate(3.413 54.927)"><path class="d" d="M1020.03,283.542l-4.974-1.445H997.513l-4.972,1.445L980.149,399.626h52.275Z" transform="translate(-935.547 -282.097)"/><path class="b" d="M1001.127,283.264s-30.777,8.573-35.733,15.7c-4.637,6.663-22.392,43.1-21.2,64.79a4.037,4.037,0,0,0,4.556,3.8l23.463-5.175-8.467,46.783s24.166,4.853,37.8,4.027Z" transform="translate(-944.133 -281.819)"/><path class="b" d="M1012.4,283.264s30.777,8.573,35.734,15.7c4.636,6.663,22.865,41.641,21.677,63.336a4.037,4.037,0,0,1-4.553,3.8l-23.94-3.721,8.468,46.783s-23.978,5.473-37.61,4.646Z" transform="translate(-927.912 -281.819)"/><path class="bd" d="M1011.477,292.732l-8.608-4.8-7.989,4.8,5.1,7.045s-4.873,71.975-5.06,79.66c-.029,1.154,3.014,4.918,5.787,8.1.765.882,1.512,1.719,2.166,2.441.654-.724,1.4-1.559,2.167-2.441,2.773-3.184,5.814-6.947,5.786-8.1-.191-7.686-4.511-79.385-4.511-79.385Z" transform="translate(-932.035 -280.705)"/><path class="b" d="M969.529,352.732l72.5-12.187-3.924-16.833-82.725,8.056Z" transform="translate(-941.452 -272.176)"/><path class="bb" d="M1025,338.755s10.6-3.442,14.183-2.892,1.928-11.773-17.006-12.151Z" transform="translate(-925.526 -272.176)"/><path class="bb" d="M991.406,328.063a20.577,20.577,0,0,0-15.594-5.474c-5.247.457-9.192,7.85-9.192,7.85Z" transform="translate(-938.772 -272.462)"/><g class="au" transform="translate(24.876 75.695)"><g class="bg"><path class="aw" d="M964.221,365.761l32.249-22.539-29.048,4.858Z" transform="translate(-964.22 -343.22)"/></g></g><g class="au" transform="translate(22.037 39.844)"><g class="bh"><path class="aw" d="M967.74,332.4l-5.813-.149L973.7,314.272Z" transform="translate(-961.928 -314.27)"/></g></g><g class="au" transform="translate(112.984 41.837)"><g class="bi"><path class="aw" d="M1036.272,337.79s6.017.12,6.654-.836-7.558-21.075-7.558-21.075,6.038,20.188.9,21.911" transform="translate(-1035.366 -315.881)"/></g></g><g class="au" transform="translate(84.352 75.497)"><g class="bj"><path class="aw" d="M1049.764,394.9l-4.8-26.5-3.672-20.284-29.044-5.059,0,1.635,21.328,15.453,6.31,36.731c5.774-1.039,9.879-1.977,9.879-1.977" transform="translate(-1012.246 -343.061)"/></g></g></g><g transform="translate(53.709)"><path class="bb" d="M1010.408,284.377l-7.333,4.463-7.812-4.463V269.743h15.145Z" transform="translate(-982.239 -230.116)"/><path class="at" d="M986.069,265.592s-3.034-11.333.089-17.044,8.43-12.055,13.606-8.484c0,0,3.112-4.087,14.089-1.409s16.388,2.754,20.315.7.921,18.115-7.2,19.275c0,0-.654,5.266-2.26,7.139s-21.237,2.856-21.237,2.856Z" transform="translate(-984.746 -237.745)"/><path class="bb" d="M1000.794,248.36c-.567-.633-1.681,2.116-4.311,4.4a31.273,31.273,0,0,1-7.265,4.451v10.928s2.266,14.845,15.634,14.845c11.026,0,14.974-14.785,14.974-14.785V255.409s-13.14-.477-19.032-7.049" transform="translate(-983.68 -235.236)"/><path class="bc" d="M1010.406,274.44v3.008a11.713,11.713,0,0,1-6.993,2.312,14.221,14.221,0,0,1-8.147-2.365v-3a14.239,14.239,0,0,0,8.147,2.363,11.731,11.731,0,0,0,6.993-2.315" transform="translate(-982.238 -229.008)"/><path class="bb" d="M996.393,262.324a5.336,5.336,0,0,0-10.673,0c0,2.949,3.234,6.221,6.181,6.221s4.492-3.272,4.492-6.221" transform="translate(-984.514 -233.157)"/><path class="bb" d="M1009.823,262.324a5.336,5.336,0,0,1,10.673,0c0,2.949-3.234,6.221-6.181,6.221s-4.492-3.272-4.492-6.221" transform="translate(-978.768 -233.157)"/></g></g><g transform="translate(1152.937 258.356)"><g transform="translate(72.566 175.663)"><path class="at" d="M1222.568,583.793l-20.06-.3c-3.827-13.842-22.964-159.717-22.964-159.717l-24.965,53.254,12.244,106.406-18.734.115s-29.424-91.975-29.424-111.112c0-14.59,14.706-61.772,21.7-83.411l.561-.145,26.145,4.763a61.641,61.641,0,0,0,24.821-.532l30.576-6.95.057.03c3.038,39.942.045,197.6.045,197.6" transform="translate(-1118.665 -386.161)"/><path class="bf" d="M1205.125,583.786s1.445-72,1.361-130.358v-.145q-.006-1.913-.01-3.808c0-.529,0-1.051,0-1.578,0-.774,0-1.549-.007-2.318-.1-25.314-.483-47.5-1.389-59.394l-13.24,3.014h0l6.247,194.287,6.791.279Z" transform="translate(-1101.221 -386.155)"/><path class="bf" d="M1157.009,576.37l5.132-.179-12.249-106.4,24.965-53.254-36.528,52Z" transform="translate(-1113.977 -378.92)"/><path d="M1148.663,545.476c-4.489,8.992-25.484,13.374-25.484,13.374s-1.534,2.651.828,6.042,24.432,1.518,27.2.93a9.63,9.63,0,0,0,4.692-2.816,15.338,15.338,0,0,0,2.869,2.54c1.032.506,6.672-.572,6.672-.572,1.356-3.579.155-17.307-.207-19.5Z" transform="translate(-1117.706 -348.18)"/><path d="M1192.376,545.476c-4.488,8.992-25.483,13.374-25.483,13.374s-1.535,2.651.827,6.042,24.433,1.518,27.2.93a9.631,9.631,0,0,0,4.692-2.816,15.384,15.384,0,0,0,2.869,2.54c1.032.506,6.673-.572,6.673-.572,1.356-3.579.155-17.307-.206-19.5Z" transform="translate(-1107.284 -348.18)"/></g><g transform="translate(106.817 0)"><path class="bb" d="M1179.672,276.367v16.806l-9.9,7.079-6.678-6.431.157-6.893a12.679,12.679,0,0,0,2.577.259,14.006,14.006,0,0,0,13.424-10.848,2.049,2.049,0,0,0,.417.029" transform="translate(-1142.324 -236.68)"/><path class="bb" d="M1185.816,269.114a3.172,3.172,0,0,0-4.224-.4s-.032.033-.087.1c-5.806-1.376-13.9-7.538-13.9-7.538a96.148,96.148,0,0,1-13.508,6.271v8.716c0,8.021,6.211,14.525,13.874,14.525a14.008,14.008,0,0,0,13.426-10.856c4.775.659,6.351-8.753,4.42-10.815" transform="translate(-1144.469 -240.272)"/><path class="at" d="M1183.7,290.563l-.029-.014V284c4.446.087,5.871-8.835,4-10.85a3.185,3.185,0,0,0-4.23-.4.714.714,0,0,1-.086.1A129.081,129.081,0,0,1,1169.5,268.3a23.28,23.28,0,0,1-13.554,3.288c-2.029-.489-9.928-3.122-9.611-13.352.316-10.332,28.1-22.375,43.469-5.526,6.014,6.576,9.554,35.124-6.1,37.857" transform="translate(-1146.323 -244.315)"/><path class="bc" d="M1165.83,287.188a13.321,13.321,0,0,1-2.578-.281l-.155,6.915,4.3,4.149v-8.107c11.094,0,11.855-13.526,11.855-13.526a14.007,14.007,0,0,1-13.424,10.85" transform="translate(-1142.323 -236.68)"/><path class="bk" d="M1181.475,267.415a.8.8,0,0,1-.087.1,17.721,17.721,0,0,1-2.5-.82c.274,3.515.389,12.289-4.336,17.023-1.136-1.461-3.795-4.559-6.273-5.043a28.6,28.6,0,0,0-7.659.1,3.515,3.515,0,0,0-1.991.935l-2.416,2.284a14.05,14.05,0,0,1-1.642-2.821,13.727,13.727,0,0,0,26.72-.531,3.038,3.038,0,0,0,1.152-.072v-.015Zm-11.21,16.632c-5.759,2.686-9.749.528-10.819-.817a.807.807,0,0,1,.05-1.05l.978-1.064c1.107-1.216,4.687-.768,6.18-.768,1.581,0,2.773,1.346,3.643,2.271.358.379.414,1.22-.032,1.428" transform="translate(-1144.357 -238.979)"/></g><g transform="translate(0 37.824)"><path class="b" d="M1204.38,291.4c6.118,1.048,35.224,6.026,40.916,9.985,4.889,3.4,28.572,72.679,23.579,76.286S1234.2,384.6,1234.2,384.6l3.329,25.008-33.969,7.729a61.871,61.871,0,0,1-24.824.539l-28.587-5.216,5.824-72.167-38.045,21.85a5.742,5.742,0,0,1-7.689-2.327l-40.531-70.081,11.459-5.411,34.861,41.822,33.566-26.631s7.558-5.271,35.368-7.629Z" transform="translate(-1057.771 -272.551)"/><path class="bb" d="M1082.614,287.574s-5.891-12.073-8-12.671-.185,4.869-.185,4.869-7.339-5.625-13.135-4.826,10.7,11.239,12.332,16.856c0,0,9.341-4.188,8.985-4.228" transform="translate(-1060.069 -274.857)"/><g class="bl" transform="translate(142.996 50.494)"><g class="bm"><path class="bn" d="M1207.649,345.333l-6.893-29.706,13.255,34.621a5.107,5.107,0,0,1-3.811,6.934l-34.669,7.858,27.127-10.6a7.586,7.586,0,0,0,4.991-9.107" transform="translate(-1175.538 -315.631)"/></g></g><g class="bl" transform="translate(135.429 112.216)"><g class="bo"><path class="bn" d="M1194.253,371.458c.949.431,2.083,12.086,2.924,22.681l16.1-3.663-3.328-25.01-40.522,3.526s23.075,1.671,24.825,2.466" transform="translate(-1169.426 -365.471)"/></g></g><path class="bb" d="M1172.515,367.375s-7.121,2.315-16.008-6.6a1.523,1.523,0,0,1,1.063-2.594l14.384-.114Z" transform="translate(-1037.183 -255.02)"/></g><g transform="translate(48.597 93.168)"><path class="d" d="M1105.207,367.247h60.414a5.9,5.9,0,0,0,5.9-5.9V325.443a5.9,5.9,0,0,0-5.9-5.9h-60.414a5.9,5.9,0,0,0-5.9,5.9v35.908a5.9,5.9,0,0,0,5.9,5.9" transform="translate(-1099.31 -319.547)"/><path class="d" d="M1131.293,359.88h51.12a4.99,4.99,0,0,0,4.991-4.988v.545a4.992,4.992,0,0,0-4.991-4.99h-51.12a4.991,4.991,0,0,0-4.99,4.99v-.545a4.989,4.989,0,0,0,4.99,4.988" transform="translate(-1092.875 -312.18)"/><path class="bp" d="M1164.582,350.447v3.536a5.9,5.9,0,0,1-5.856,5.9h-5.834a5.894,5.894,0,0,0,5.851-5.9v-3.536Z" transform="translate(-1086.536 -312.18)"/><path class="bp" d="M1119.514,342.751a8.24,8.24,0,1,1,8.239,8.239,8.239,8.239,0,0,1-8.239-8.239" transform="translate(-1094.493 -315.979)"/><g transform="translate(26.037 19.548)"><circle class="bq" cx="7.223" cy="7.223" r="7.223"/><g transform="translate(4.251 4.493)"><path class="d" d="M1126.281,338.96h-.009a.525.525,0,0,0-.478.31l-1.98,4.412a.524.524,0,0,0,.478.739h0a.523.523,0,0,0,.478-.31l1.989-4.412A.524.524,0,0,0,1126.281,338.96Z" transform="translate(-1123.767 -338.96)"/><path class="d" d="M1127.59,340.3h.027a.592.592,0,0,1,.592.592v2.615a.592.592,0,0,1-.592.592h0a.592.592,0,0,1-.592-.586L1127,340.9A.592.592,0,0,1,1127.59,340.3Z" transform="translate(-1122.997 -338.64)"/><circle class="d" cx="0.564" cy="0.564" r="0.564" transform="translate(2.37 2.953)"/><circle class="d" cx="0.564" cy="0.564" r="0.564" transform="translate(4.058 0.039)"/></g></g></g></g><g transform="translate(1128.711 192.975)"><g class="e"><g class="br"><path class="g" d="M1154.858,191.521H1046.832a6.32,6.32,0,0,0-6.32,6.321v69.612a6.32,6.32,0,0,0,6.32,6.321h108.026a6.321,6.321,0,0,0,6.321-6.321V197.842a6.321,6.321,0,0,0-6.321-6.321" transform="translate(-1040.505 -191.521)"/></g></g><g class="i" transform="translate(0.012)"><g class="bs"><path class="b" d="M1161.177,203.483v-5.642a6.32,6.32,0,0,0-6.321-6.32H1046.831a6.32,6.32,0,0,0-6.32,6.32v5.642Z" transform="translate(-1040.518 -191.521)"/></g></g><path class="aq" d="M1064.343,210.481h-16.595a1.5,1.5,0,0,0-1.5,1.5v16.536a1.5,1.5,0,0,0,1.5,1.5h16.595a1.5,1.5,0,0,0,1.5-1.5V211.982a1.5,1.5,0,0,0-1.5-1.5" transform="translate(-1039.138 -187)"/><path class="d" d="M1087.8,210.481H1071.21a1.5,1.5,0,0,0-1.5,1.5v16.536a1.5,1.5,0,0,0,1.5,1.5H1087.8a1.5,1.5,0,0,0,1.5-1.5V211.982a1.5,1.5,0,0,0-1.5-1.5" transform="translate(-1033.545 -187)"/><g class="i" transform="translate(65.066 23.48)"><g class="bt"><path class="b" d="M1111.138,210.481h-16.595a1.5,1.5,0,0,0-1.5,1.5v16.536a1.5,1.5,0,0,0,1.5,1.5h16.595a1.5,1.5,0,0,0,1.5-1.5V211.982a1.5,1.5,0,0,0-1.5-1.5" transform="translate(-1093.048 -210.48)"/></g></g><path class="aq" d="M1133.693,210.481H1117.1a1.5,1.5,0,0,0-1.5,1.5v16.536a1.5,1.5,0,0,0,1.5,1.5h16.595a1.5,1.5,0,0,0,1.5-1.5V211.982a1.5,1.5,0,0,0-1.5-1.5" transform="translate(-1022.605 -187)"/><g class="i" transform="translate(7.108 50.737)"><g class="bu"><path class="b" d="M1064.343,232.494h-16.595a1.5,1.5,0,0,0-1.5,1.5V250.53a1.5,1.5,0,0,0,1.5,1.5h16.595a1.5,1.5,0,0,0,1.5-1.5V233.995a1.5,1.5,0,0,0-1.5-1.5" transform="translate(-1046.246 -232.489)"/></g></g><path class="aq" d="M1087.8,232.494H1071.21a1.5,1.5,0,0,0-1.5,1.5V250.53a1.5,1.5,0,0,0,1.5,1.5H1087.8a1.5,1.5,0,0,0,1.5-1.5V233.995a1.5,1.5,0,0,0-1.5-1.5" transform="translate(-1033.545 -181.752)"/><path class="d" d="M1111.138,232.494h-16.595a1.5,1.5,0,0,0-1.5,1.5V250.53a1.5,1.5,0,0,0,1.5,1.5h16.595a1.5,1.5,0,0,0,1.5-1.5V233.995a1.5,1.5,0,0,0-1.5-1.5" transform="translate(-1027.982 -181.752)"/><path class="aq" d="M1133.693,232.494H1117.1a1.5,1.5,0,0,0-1.5,1.5V250.53a1.5,1.5,0,0,0,1.5,1.5h16.595a1.5,1.5,0,0,0,1.5-1.5V233.995a1.5,1.5,0,0,0-1.5-1.5" transform="translate(-1022.605 -181.752)"/></g></g></svg>