<svg xmlns="http://www.w3.org/2000/svg" width="84" height="80" viewBox="0 0 84 80"><defs><style>.a{fill:#fe5b68;}.b{fill:#fffffe;}.c{fill:#ff5360;}.d{fill:#dee8ec;}.e{fill:#fc4d5b;font-size:18px;font-family:SegoeUI-Bold, Segoe UI;font-weight:700;}</style></defs><g transform="translate(-1801.49 -2376)"><g transform="translate(1801.49 2376)"><path class="a" d="M666.879,271.649l-3.517,5.142a23.86,23.86,0,0,0,5,2.629C668.961,275.47,668.515,272.768,666.879,271.649Z" transform="translate(-590.723 -271.081)"/><path class="a" d="M432.892,385.742a21.626,21.626,0,0,0-11.584,3.34,21.76,21.76,0,0,0-42.3,6.566,17.772,17.772,0,0,0,9.43,32.941A17.96,17.96,0,0,0,401.1,423.4a14.2,14.2,0,0,0,18.386.564,21.5,21.5,0,1,0,13.407-38.22Z" transform="translate(-370.49 -348.589)"/><path class="b" d="M444.19,436.28a17.788,17.788,0,0,1-11.11-3.838l-2.328-1.833-2.311,1.854a10.465,10.465,0,0,1-13.559-.417l-2.615-2.376-2.511,2.484a14.263,14.263,0,0,1-24.3-10.017,14.056,14.056,0,0,1,1.855-6.985,14.3,14.3,0,0,1,4.9-5.05l1.723-1.059.035-2.012a17.738,17.738,0,0,1,5.383-12.449,18.1,18.1,0,0,1,29.723,7l1.521,4.443,3.986-2.52a18,18,0,0,1,22.255,2.437,17.686,17.686,0,0,1,0,25.136A17.847,17.847,0,0,1,444.19,436.28Z" transform="translate(-381.775 -359.966)"/><path class="a" d="M577.55,328.761a23.179,23.179,0,0,1,10.609-2.559,23.476,23.476,0,0,1,4.655.464q1.434-2.845,2.694-5.533c3.856-8.23,6.44-15.255,7.484-20.467a23.6,23.6,0,0,1-5.623-2.853l-5.288,7.731a4.758,4.758,0,0,1-5.372,7.854l-9.714,14.2Q577.287,328.171,577.55,328.761Z" transform="translate(-525.618 -290.804)"/><path class="a" d="M648.112,400.8c.334-3.084-.055-5.339-1.257-6.543q-1.2,2.562-2.564,5.275A22.951,22.951,0,0,1,648.112,400.8Z" transform="translate(-576.347 -363.543)"/><g transform="translate(34.564 0)"><path class="a" d="M646.041,271.344a23.864,23.864,0,0,0,4.264,3.709l3.517-5.142C652.186,268.792,649.506,269.356,646.041,271.344Z" transform="translate(-612.231 -269.343)"/><path class="c" d="M547.909,314.725l9.714-14.2a4.758,4.758,0,1,1,5.372-7.854l5.288-7.731a23.6,23.6,0,0,1-4.7-4.205c-4.478,2.863-10.089,7.818-16.36,14.4-2.819,2.957-5.772,6.242-8.815,9.813A23.35,23.35,0,0,1,547.909,314.725Z" transform="translate(-531.096 -277.927)"/><path class="a" d="M515.342,346.411c3.063-3.6,6.034-6.9,8.87-9.878-3.02-1.324-8.61,1.624-15.51,7.67A23.326,23.326,0,0,1,515.342,346.411Z" transform="translate(-508.702 -319.756)"/></g><g transform="translate(3.686 29.475)"><path class="d" d="M388.209,423.776a14.129,14.129,0,0,1,6.713-12.035l1.711-1.059.034-2.012a17.9,17.9,0,0,1,25.672-15.818,17.907,17.907,0,0,0-28.42,14.179l-.034,2.012-1.711,1.059a14.139,14.139,0,0,0,1.624,24.926A14.126,14.126,0,0,1,388.209,423.776Z" transform="translate(-385.461 -389.441)"/></g></g><text class="e" transform="translate(1827.629 2437.885)"><tspan x="0" y="0">Dit</tspan></text></g></svg>